solid ascii
  facet normal 7.071072e-001 7.071064e-001 0.000000e+000
    outer loop
      vertex   4.200000e+000 1.749946e+000 8.400000e+000
      vertex   4.200000e+000 1.749946e+000 0.000000e+000
      vertex   3.900000e+000 2.049946e+000 8.400000e+000
    endloop
  endfacet
  facet normal 3.566883e-002 3.566879e-002 0.000000e+000
    outer loop
      vertex   3.900000e+000 2.049946e+000 8.400000e+000
      vertex   4.200000e+000 1.749946e+000 0.000000e+000
      vertex   3.900000e+000 2.049946e+000 0.000000e+000
    endloop
  endfacet
  facet normal 0.000000e+000 1.000000e+000 -0.000000e+000
    outer loop
      vertex   3.900000e+000 2.049946e+000 0.000000e+000
      vertex   3.200000e+000 2.049946e+000 0.000000e+000
      vertex   3.900000e+000 2.049946e+000 8.400000e+000
    endloop
  endfacet
  facet normal 0.000000e+000 9.965457e-001 0.000000e+000
    outer loop
      vertex   3.900000e+000 2.049946e+000 8.400000e+000
      vertex   3.200000e+000 2.049946e+000 0.000000e+000
      vertex   3.200000e+000 2.049946e+000 8.400000e+000
    endloop
  endfacet
  facet normal -0.000000e+000 0.000000e+000 -4.045061e-001
    outer loop
      vertex   2.750000e+000 -6.500000e+000 0.000000e+000
      vertex   -2.450000e+000 -8.800000e+000 0.000000e+000
      vertex   -2.750000e+000 -6.500000e+000 0.000000e+000
    endloop
  endfacet
  facet normal 0.000000e+000 -0.000000e+000 -4.006787e-001
    outer loop
      vertex   -2.750000e+000 -6.500000e+000 0.000000e+000
      vertex   -2.450000e+000 -8.800000e+000 0.000000e+000
      vertex   -3.200000e+000 -8.050000e+000 0.000000e+000
    endloop
  endfacet
  facet normal -0.000000e+000 0.000000e+000 -2.788102e-001
    outer loop
      vertex   -2.750000e+000 -6.500000e+000 0.000000e+000
      vertex   -3.200000e+000 -8.050000e+000 0.000000e+000
      vertex   -2.750000e+000 6.500000e+000 0.000000e+000
    endloop
  endfacet
  facet normal -0.000000e+000 0.000000e+000 -3.083642e-001
    outer loop
      vertex   -2.750000e+000 6.500000e+000 0.000000e+000
      vertex   -3.200000e+000 -8.050000e+000 0.000000e+000
      vertex   -3.200000e+000 8.050000e+000 0.000000e+000
    endloop
  endfacet
  facet normal 0.000000e+000 0.000000e+000 -4.006787e-001
    outer loop
      vertex   -2.750000e+000 6.500000e+000 0.000000e+000
      vertex   -3.200000e+000 8.050000e+000 0.000000e+000
      vertex   -2.450000e+000 8.800000e+000 0.000000e+000
    endloop
  endfacet
  facet normal 0.000000e+000 0.000000e+000 -1.006093e-001
    outer loop
      vertex   2.750000e+000 6.500000e+000 0.000000e+000
      vertex   3.200000e+000 2.049946e+000 0.000000e+000
      vertex   2.750000e+000 -6.500000e+000 0.000000e+000
    endloop
  endfacet
  facet normal 0.000000e+000 0.000000e+000 -4.818017e-002
    outer loop
      vertex   2.750000e+000 -6.500000e+000 0.000000e+000
      vertex   3.200000e+000 2.049946e+000 0.000000e+000
      vertex   3.200000e+000 -2.050054e+000 0.000000e+000
    endloop
  endfacet
  facet normal 0.000000e+000 0.000000e+000 -3.740175e-001
    outer loop
      vertex   2.750000e+000 -6.500000e+000 0.000000e+000
      vertex   3.200000e+000 -2.050054e+000 0.000000e+000
      vertex   3.200000e+000 -8.050000e+000 0.000000e+000
    endloop
  endfacet
  facet normal 0.000000e+000 0.000000e+000 -4.045061e-001
    outer loop
      vertex   -2.750000e+000 6.500000e+000 0.000000e+000
      vertex   2.450000e+000 8.800000e+000 0.000000e+000
      vertex   2.750000e+000 6.500000e+000 0.000000e+000
    endloop
  endfacet
  facet normal 0.000000e+000 0.000000e+000 -4.006787e-001
    outer loop
      vertex   2.750000e+000 6.500000e+000 0.000000e+000
      vertex   2.450000e+000 8.800000e+000 0.000000e+000
      vertex   3.200000e+000 8.050000e+000 0.000000e+000
    endloop
  endfacet
  facet normal 0.000000e+000 0.000000e+000 -3.740152e-001
    outer loop
      vertex   2.750000e+000 6.500000e+000 0.000000e+000
      vertex   3.200000e+000 8.050000e+000 0.000000e+000
      vertex   3.200000e+000 2.049946e+000 0.000000e+000
    endloop
  endfacet
  facet normal -0.000000e+000 -0.000000e+000 -7.071064e-001
    outer loop
      vertex   4.200000e+000 1.749946e+000 0.000000e+000
      vertex   4.200000e+000 -1.750054e+000 0.000000e+000
      vertex   3.900000e+000 2.049946e+000 0.000000e+000
    endloop
  endfacet
  facet normal 0.000000e+000 0.000000e+000 -7.870241e-002
    outer loop
      vertex   3.900000e+000 2.049946e+000 0.000000e+000
      vertex   4.200000e+000 -1.750054e+000 0.000000e+000
      vertex   3.900000e+000 -2.050054e+000 0.000000e+000
    endloop
  endfacet
  facet normal 0.000000e+000 -0.000000e+000 -1.682965e-001
    outer loop
      vertex   3.900000e+000 2.049946e+000 0.000000e+000
      vertex   3.900000e+000 -2.050054e+000 0.000000e+000
      vertex   3.200000e+000 -2.050054e+000 0.000000e+000
    endloop
  endfacet
  facet normal -0.000000e+000 0.000000e+000 -8.762159e-001
    outer loop
      vertex   3.200000e+000 -8.050000e+000 0.000000e+000
      vertex   2.450000e+000 -8.800000e+000 0.000000e+000
      vertex   2.750000e+000 -6.500000e+000 0.000000e+000
    endloop
  endfacet
  facet normal 0.000000e+000 0.000000e+000 -8.545351e-001
    outer loop
      vertex   2.750000e+000 -6.500000e+000 0.000000e+000
      vertex   2.450000e+000 -8.800000e+000 0.000000e+000
      vertex   -2.450000e+000 -8.800000e+000 0.000000e+000
    endloop
  endfacet
  facet normal 0.000000e+000 -0.000000e+000 -9.916004e-001
    outer loop
      vertex   -2.450000e+000 8.800000e+000 0.000000e+000
      vertex   2.450000e+000 8.800000e+000 0.000000e+000
      vertex   -2.750000e+000 6.500000e+000 0.000000e+000
    endloop
  endfacet
  facet normal 0.000000e+000 0.000000e+000 -1.000000e+000
    outer loop
      vertex   3.200000e+000 2.049946e+000 0.000000e+000
      vertex   3.900000e+000 2.049946e+000 0.000000e+000
      vertex   3.200000e+000 -2.050054e+000 0.000000e+000
    endloop
  endfacet
  facet normal 7.071072e-001 -7.071064e-001 0.000000e+000
    outer loop
      vertex   4.200000e+000 -1.750054e+000 0.000000e+000
      vertex   4.200000e+000 -1.750054e+000 8.400000e+000
      vertex   3.900000e+000 -2.050054e+000 0.000000e+000
    endloop
  endfacet
  facet normal 3.566883e-002 -3.566879e-002 0.000000e+000
    outer loop
      vertex   3.900000e+000 -2.050054e+000 0.000000e+000
      vertex   4.200000e+000 -1.750054e+000 8.400000e+000
      vertex   3.900000e+000 -2.050054e+000 8.400000e+000
    endloop
  endfacet
  facet normal -0.000000e+000 -1.000000e+000 -0.000000e+000
    outer loop
      vertex   3.900000e+000 -2.050054e+000 8.400000e+000
      vertex   3.200000e+000 -2.050054e+000 8.400000e+000
      vertex   3.900000e+000 -2.050054e+000 0.000000e+000
    endloop
  endfacet
  facet normal 0.000000e+000 -9.965457e-001 0.000000e+000
    outer loop
      vertex   3.900000e+000 -2.050054e+000 0.000000e+000
      vertex   3.200000e+000 -2.050054e+000 8.400000e+000
      vertex   3.200000e+000 -2.050054e+000 0.000000e+000
    endloop
  endfacet
  facet normal 0.000000e+000 -0.000000e+000 7.071064e-001
    outer loop
      vertex   4.200000e+000 -1.750054e+000 8.400000e+000
      vertex   4.200000e+000 1.749946e+000 8.400000e+000
      vertex   3.900000e+000 -2.050054e+000 8.400000e+000
    endloop
  endfacet
  facet normal 0.000000e+000 0.000000e+000 7.870241e-002
    outer loop
      vertex   3.900000e+000 -2.050054e+000 8.400000e+000
      vertex   4.200000e+000 1.749946e+000 8.400000e+000
      vertex   3.900000e+000 2.049946e+000 8.400000e+000
    endloop
  endfacet
  facet normal 0.000000e+000 -0.000000e+000 1.682965e-001
    outer loop
      vertex   3.900000e+000 -2.050054e+000 8.400000e+000
      vertex   3.900000e+000 2.049946e+000 8.400000e+000
      vertex   3.200000e+000 2.049946e+000 8.400000e+000
    endloop
  endfacet
  facet normal 0.000000e+000 0.000000e+000 2.788102e-001
    outer loop
      vertex   3.200000e+000 8.050000e+000 8.400000e+000
      vertex   2.750000e+000 6.500000e+000 8.400000e+000
      vertex   3.200000e+000 2.049946e+000 8.400000e+000
    endloop
  endfacet
  facet normal 0.000000e+000 0.000000e+000 1.527627e-001
    outer loop
      vertex   3.200000e+000 2.049946e+000 8.400000e+000
      vertex   2.750000e+000 6.500000e+000 8.400000e+000
      vertex   2.750000e+000 -6.500000e+000 8.400000e+000
    endloop
  endfacet
  facet normal 0.000000e+000 0.000000e+000 5.255917e-002
    outer loop
      vertex   3.200000e+000 2.049946e+000 8.400000e+000
      vertex   2.750000e+000 -6.500000e+000 8.400000e+000
      vertex   3.200000e+000 -2.050054e+000 8.400000e+000
    endloop
  endfacet
  facet normal 0.000000e+000 0.000000e+000 1.006117e-001
    outer loop
      vertex   3.200000e+000 -2.050054e+000 8.400000e+000
      vertex   2.750000e+000 -6.500000e+000 8.400000e+000
      vertex   3.200000e+000 -8.050000e+000 8.400000e+000
    endloop
  endfacet
  facet normal 0.000000e+000 0.000000e+000 8.762159e-001
    outer loop
      vertex   3.200000e+000 -8.050000e+000 8.400000e+000
      vertex   2.750000e+000 -6.500000e+000 8.400000e+000
      vertex   2.450000e+000 -8.800000e+000 8.400000e+000
    endloop
  endfacet
  facet normal 0.000000e+000 -0.000000e+000 9.591721e-001
    outer loop
      vertex   2.450000e+000 -8.800000e+000 8.400000e+000
      vertex   2.750000e+000 -6.500000e+000 8.400000e+000
      vertex   -2.750000e+000 -6.500000e+000 8.400000e+000
    endloop
  endfacet
  facet normal 0.000000e+000 0.000000e+000 4.045061e-001
    outer loop
      vertex   2.450000e+000 -8.800000e+000 8.400000e+000
      vertex   -2.750000e+000 -6.500000e+000 8.400000e+000
      vertex   -2.450000e+000 -8.800000e+000 8.400000e+000
    endloop
  endfacet
  facet normal 0.000000e+000 0.000000e+000 6.097108e-001
    outer loop
      vertex   -2.450000e+000 -8.800000e+000 8.400000e+000
      vertex   -2.750000e+000 -6.500000e+000 8.400000e+000
      vertex   -3.200000e+000 -8.050000e+000 8.400000e+000
    endloop
  endfacet
  facet normal 0.000000e+000 0.000000e+000 2.489897e-001
    outer loop
      vertex   -3.200000e+000 -8.050000e+000 8.400000e+000
      vertex   -2.750000e+000 -6.500000e+000 8.400000e+000
      vertex   -2.750000e+000 6.500000e+000 8.400000e+000
    endloop
  endfacet
  facet normal 0.000000e+000 0.000000e+000 3.091306e-002
    outer loop
      vertex   -3.200000e+000 -8.050000e+000 8.400000e+000
      vertex   -2.750000e+000 6.500000e+000 8.400000e+000
      vertex   -3.200000e+000 8.050000e+000 8.400000e+000
    endloop
  endfacet
  facet normal -0.000000e+000 0.000000e+000 8.762159e-001
    outer loop
      vertex   -3.200000e+000 8.050000e+000 8.400000e+000
      vertex   -2.750000e+000 6.500000e+000 8.400000e+000
      vertex   -2.450000e+000 8.800000e+000 8.400000e+000
    endloop
  endfacet
  facet normal 0.000000e+000 0.000000e+000 9.591721e-001
    outer loop
      vertex   -2.450000e+000 8.800000e+000 8.400000e+000
      vertex   -2.750000e+000 6.500000e+000 8.400000e+000
      vertex   2.750000e+000 6.500000e+000 8.400000e+000
    endloop
  endfacet
  facet normal -0.000000e+000 0.000000e+000 4.045061e-001
    outer loop
      vertex   -2.450000e+000 8.800000e+000 8.400000e+000
      vertex   2.750000e+000 6.500000e+000 8.400000e+000
      vertex   2.450000e+000 8.800000e+000 8.400000e+000
    endloop
  endfacet
  facet normal 0.000000e+000 0.000000e+000 6.097108e-001
    outer loop
      vertex   2.450000e+000 8.800000e+000 8.400000e+000
      vertex   2.750000e+000 6.500000e+000 8.400000e+000
      vertex   3.200000e+000 8.050000e+000 8.400000e+000
    endloop
  endfacet
  facet normal 0.000000e+000 0.000000e+000 1.000000e+000
    outer loop
      vertex   3.200000e+000 -2.050054e+000 8.400000e+000
      vertex   3.900000e+000 -2.050054e+000 8.400000e+000
      vertex   3.200000e+000 2.049946e+000 8.400000e+000
    endloop
  endfacet
  facet normal 1.000000e+000 -0.000000e+000 0.000000e+000
    outer loop
      vertex   -2.750000e+000 -6.500000e+000 8.400000e+000
      vertex   -2.750000e+000 -6.500000e+000 0.000000e+000
      vertex   -2.750000e+000 6.500000e+000 8.400000e+000
    endloop
  endfacet
  facet normal 8.399167e-001 0.000000e+000 0.000000e+000
    outer loop
      vertex   -2.750000e+000 6.500000e+000 8.400000e+000
      vertex   -2.750000e+000 -6.500000e+000 0.000000e+000
      vertex   -2.750000e+000 6.500000e+000 0.000000e+000
    endloop
  endfacet
  facet normal -1.000000e+000 0.000000e+000 0.000000e+000
    outer loop
      vertex   2.750000e+000 -6.500000e+000 0.000000e+000
      vertex   2.750000e+000 -6.500000e+000 8.400000e+000
      vertex   2.750000e+000 6.500000e+000 0.000000e+000
    endloop
  endfacet
  facet normal -8.399167e-001 0.000000e+000 0.000000e+000
    outer loop
      vertex   2.750000e+000 6.500000e+000 0.000000e+000
      vertex   2.750000e+000 -6.500000e+000 8.400000e+000
      vertex   2.750000e+000 6.500000e+000 8.400000e+000
    endloop
  endfacet
  facet normal 0.000000e+000 -1.000000e+000 0.000000e+000
    outer loop
      vertex   -2.750000e+000 6.500000e+000 8.400000e+000
      vertex   -2.750000e+000 6.500000e+000 0.000000e+000
      vertex   2.750000e+000 6.500000e+000 8.400000e+000
    endloop
  endfacet
  facet normal 0.000000e+000 -5.477859e-001 -0.000000e+000
    outer loop
      vertex   2.750000e+000 6.500000e+000 8.400000e+000
      vertex   -2.750000e+000 6.500000e+000 0.000000e+000
      vertex   2.750000e+000 6.500000e+000 0.000000e+000
    endloop
  endfacet
  facet normal 7.071068e-001 -7.071068e-001 0.000000e+000
    outer loop
      vertex   2.450000e+000 -8.800000e+000 8.400000e+000
      vertex   2.450000e+000 -8.800000e+000 0.000000e+000
      vertex   3.200000e+000 -8.050000e+000 8.400000e+000
    endloop
  endfacet
  facet normal 8.858234e-002 -8.858234e-002 0.000000e+000
    outer loop
      vertex   3.200000e+000 -8.050000e+000 8.400000e+000
      vertex   2.450000e+000 -8.800000e+000 0.000000e+000
      vertex   3.200000e+000 -8.050000e+000 0.000000e+000
    endloop
  endfacet
  facet normal 1.000000e+000 -0.000000e+000 0.000000e+000
    outer loop
      vertex   3.200000e+000 -8.050000e+000 8.400000e+000
      vertex   3.200000e+000 -8.050000e+000 0.000000e+000
      vertex   3.200000e+000 -2.050054e+000 8.400000e+000
    endloop
  endfacet
  facet normal 5.812348e-001 0.000000e+000 0.000000e+000
    outer loop
      vertex   3.200000e+000 -2.050054e+000 8.400000e+000
      vertex   3.200000e+000 -8.050000e+000 0.000000e+000
      vertex   3.200000e+000 -2.050054e+000 0.000000e+000
    endloop
  endfacet
  facet normal 0.000000e+000 -1.000000e+000 0.000000e+000
    outer loop
      vertex   2.450000e+000 -8.800000e+000 0.000000e+000
      vertex   2.450000e+000 -8.800000e+000 8.400000e+000
      vertex   -2.450000e+000 -8.800000e+000 0.000000e+000
    endloop
  endfacet
  facet normal 0.000000e+000 -5.038710e-001 0.000000e+000
    outer loop
      vertex   -2.450000e+000 -8.800000e+000 0.000000e+000
      vertex   2.450000e+000 -8.800000e+000 8.400000e+000
      vertex   -2.450000e+000 -8.800000e+000 8.400000e+000
    endloop
  endfacet
  facet normal -7.071068e-001 -7.071068e-001 -0.000000e+000
    outer loop
      vertex   -3.200000e+000 -8.050000e+000 8.400000e+000
      vertex   -3.200000e+000 -8.050000e+000 0.000000e+000
      vertex   -2.450000e+000 -8.800000e+000 8.400000e+000
    endloop
  endfacet
  facet normal -8.858234e-002 -8.858234e-002 -0.000000e+000
    outer loop
      vertex   -2.450000e+000 -8.800000e+000 8.400000e+000
      vertex   -3.200000e+000 -8.050000e+000 0.000000e+000
      vertex   -2.450000e+000 -8.800000e+000 0.000000e+000
    endloop
  endfacet
  facet normal 7.071068e-001 7.071068e-001 -0.000000e+000
    outer loop
      vertex   2.450000e+000 8.800000e+000 0.000000e+000
      vertex   2.450000e+000 8.800000e+000 8.400000e+000
      vertex   3.200000e+000 8.050000e+000 0.000000e+000
    endloop
  endfacet
  facet normal 8.858234e-002 8.858234e-002 -0.000000e+000
    outer loop
      vertex   3.200000e+000 8.050000e+000 0.000000e+000
      vertex   2.450000e+000 8.800000e+000 8.400000e+000
      vertex   3.200000e+000 8.050000e+000 8.400000e+000
    endloop
  endfacet
  facet normal 0.000000e+000 1.000000e+000 0.000000e+000
    outer loop
      vertex   2.450000e+000 8.800000e+000 8.400000e+000
      vertex   2.450000e+000 8.800000e+000 0.000000e+000
      vertex   -2.450000e+000 8.800000e+000 8.400000e+000
    endloop
  endfacet
  facet normal 0.000000e+000 5.038710e-001 0.000000e+000
    outer loop
      vertex   -2.450000e+000 8.800000e+000 8.400000e+000
      vertex   2.450000e+000 8.800000e+000 0.000000e+000
      vertex   -2.450000e+000 8.800000e+000 0.000000e+000
    endloop
  endfacet
  facet normal -7.071068e-001 7.071068e-001 0.000000e+000
    outer loop
      vertex   -2.450000e+000 8.800000e+000 8.400000e+000
      vertex   -2.450000e+000 8.800000e+000 0.000000e+000
      vertex   -3.200000e+000 8.050000e+000 8.400000e+000
    endloop
  endfacet
  facet normal -8.858234e-002 8.858234e-002 0.000000e+000
    outer loop
      vertex   -3.200000e+000 8.050000e+000 8.400000e+000
      vertex   -2.450000e+000 8.800000e+000 0.000000e+000
      vertex   -3.200000e+000 8.050000e+000 0.000000e+000
    endloop
  endfacet
  facet normal -1.000000e+000 0.000000e+000 0.000000e+000
    outer loop
      vertex   -3.200000e+000 -8.050000e+000 0.000000e+000
      vertex   -3.200000e+000 -8.050000e+000 8.400000e+000
      vertex   -3.200000e+000 8.050000e+000 0.000000e+000
    endloop
  endfacet
  facet normal -8.865849e-001 0.000000e+000 0.000000e+000
    outer loop
      vertex   -3.200000e+000 8.050000e+000 0.000000e+000
      vertex   -3.200000e+000 -8.050000e+000 8.400000e+000
      vertex   -3.200000e+000 8.050000e+000 8.400000e+000
    endloop
  endfacet
  facet normal 1.000000e+000 0.000000e+000 -0.000000e+000
    outer loop
      vertex   3.200000e+000 8.050000e+000 0.000000e+000
      vertex   3.200000e+000 8.050000e+000 8.400000e+000
      vertex   3.200000e+000 2.049946e+000 0.000000e+000
    endloop
  endfacet
  facet normal 5.812417e-001 0.000000e+000 0.000000e+000
    outer loop
      vertex   3.200000e+000 2.049946e+000 0.000000e+000
      vertex   3.200000e+000 8.050000e+000 8.400000e+000
      vertex   3.200000e+000 2.049946e+000 8.400000e+000
    endloop
  endfacet
  facet normal 0.000000e+000 1.000000e+000 0.000000e+000
    outer loop
      vertex   -2.750000e+000 -6.500000e+000 0.000000e+000
      vertex   -2.750000e+000 -6.500000e+000 8.400000e+000
      vertex   2.750000e+000 -6.500000e+000 0.000000e+000
    endloop
  endfacet
  facet normal 0.000000e+000 5.477859e-001 -0.000000e+000
    outer loop
      vertex   2.750000e+000 -6.500000e+000 0.000000e+000
      vertex   -2.750000e+000 -6.500000e+000 8.400000e+000
      vertex   2.750000e+000 -6.500000e+000 8.400000e+000
    endloop
  endfacet
  facet normal 1.000000e+000 0.000000e+000 -0.000000e+000
    outer loop
      vertex   4.200000e+000 1.749946e+000 0.000000e+000
      vertex   4.200000e+000 1.749946e+000 8.400000e+000
      vertex   4.200000e+000 -1.750054e+000 0.000000e+000
    endloop
  endfacet
  facet normal 3.846154e-001 0.000000e+000 0.000000e+000
    outer loop
      vertex   4.200000e+000 -1.750054e+000 0.000000e+000
      vertex   4.200000e+000 1.749946e+000 8.400000e+000
      vertex   4.200000e+000 -1.750054e+000 8.400000e+000
    endloop
  endfacet
endsolid
