G04 #@! TF.GenerationSoftware,KiCad,Pcbnew,(5.1.2)-2*
G04 #@! TF.CreationDate,2020-12-09T13:32:10+01:00*
G04 #@! TF.ProjectId,Relay-Board,52656c61-792d-4426-9f61-72642e6b6963,rev?*
G04 #@! TF.SameCoordinates,Original*
G04 #@! TF.FileFunction,Paste,Top*
G04 #@! TF.FilePolarity,Positive*
%FSLAX46Y46*%
G04 Gerber Fmt 4.6, Leading zero omitted, Abs format (unit mm)*
G04 Created by KiCad (PCBNEW (5.1.2)-2) date 2020-12-09 13:32:10*
%MOMM*%
%LPD*%
G04 APERTURE LIST*
%ADD10R,1.780000X1.500000*%
%ADD11R,0.900000X0.800000*%
%ADD12C,0.100000*%
%ADD13C,0.875000*%
G04 APERTURE END LIST*
D10*
X98811080Y-58765480D03*
X101351080Y-68295480D03*
X101351080Y-58765480D03*
X98811080Y-68295480D03*
D11*
X99498400Y-50231000D03*
X101498400Y-49281000D03*
X101498400Y-51181000D03*
X102101400Y-54269600D03*
X100101400Y-55219600D03*
X100101400Y-53319600D03*
D12*
G36*
X102841151Y-56335693D02*
G01*
X102862386Y-56338843D01*
X102883210Y-56344059D01*
X102903422Y-56351291D01*
X102922828Y-56360470D01*
X102941241Y-56371506D01*
X102958484Y-56384294D01*
X102974390Y-56398710D01*
X102988806Y-56414616D01*
X103001594Y-56431859D01*
X103012630Y-56450272D01*
X103021809Y-56469678D01*
X103029041Y-56489890D01*
X103034257Y-56510714D01*
X103037407Y-56531949D01*
X103038460Y-56553390D01*
X103038460Y-57065890D01*
X103037407Y-57087331D01*
X103034257Y-57108566D01*
X103029041Y-57129390D01*
X103021809Y-57149602D01*
X103012630Y-57169008D01*
X103001594Y-57187421D01*
X102988806Y-57204664D01*
X102974390Y-57220570D01*
X102958484Y-57234986D01*
X102941241Y-57247774D01*
X102922828Y-57258810D01*
X102903422Y-57267989D01*
X102883210Y-57275221D01*
X102862386Y-57280437D01*
X102841151Y-57283587D01*
X102819710Y-57284640D01*
X102382210Y-57284640D01*
X102360769Y-57283587D01*
X102339534Y-57280437D01*
X102318710Y-57275221D01*
X102298498Y-57267989D01*
X102279092Y-57258810D01*
X102260679Y-57247774D01*
X102243436Y-57234986D01*
X102227530Y-57220570D01*
X102213114Y-57204664D01*
X102200326Y-57187421D01*
X102189290Y-57169008D01*
X102180111Y-57149602D01*
X102172879Y-57129390D01*
X102167663Y-57108566D01*
X102164513Y-57087331D01*
X102163460Y-57065890D01*
X102163460Y-56553390D01*
X102164513Y-56531949D01*
X102167663Y-56510714D01*
X102172879Y-56489890D01*
X102180111Y-56469678D01*
X102189290Y-56450272D01*
X102200326Y-56431859D01*
X102213114Y-56414616D01*
X102227530Y-56398710D01*
X102243436Y-56384294D01*
X102260679Y-56371506D01*
X102279092Y-56360470D01*
X102298498Y-56351291D01*
X102318710Y-56344059D01*
X102339534Y-56338843D01*
X102360769Y-56335693D01*
X102382210Y-56334640D01*
X102819710Y-56334640D01*
X102841151Y-56335693D01*
X102841151Y-56335693D01*
G37*
D13*
X102600960Y-56809640D03*
D12*
G36*
X101266151Y-56335693D02*
G01*
X101287386Y-56338843D01*
X101308210Y-56344059D01*
X101328422Y-56351291D01*
X101347828Y-56360470D01*
X101366241Y-56371506D01*
X101383484Y-56384294D01*
X101399390Y-56398710D01*
X101413806Y-56414616D01*
X101426594Y-56431859D01*
X101437630Y-56450272D01*
X101446809Y-56469678D01*
X101454041Y-56489890D01*
X101459257Y-56510714D01*
X101462407Y-56531949D01*
X101463460Y-56553390D01*
X101463460Y-57065890D01*
X101462407Y-57087331D01*
X101459257Y-57108566D01*
X101454041Y-57129390D01*
X101446809Y-57149602D01*
X101437630Y-57169008D01*
X101426594Y-57187421D01*
X101413806Y-57204664D01*
X101399390Y-57220570D01*
X101383484Y-57234986D01*
X101366241Y-57247774D01*
X101347828Y-57258810D01*
X101328422Y-57267989D01*
X101308210Y-57275221D01*
X101287386Y-57280437D01*
X101266151Y-57283587D01*
X101244710Y-57284640D01*
X100807210Y-57284640D01*
X100785769Y-57283587D01*
X100764534Y-57280437D01*
X100743710Y-57275221D01*
X100723498Y-57267989D01*
X100704092Y-57258810D01*
X100685679Y-57247774D01*
X100668436Y-57234986D01*
X100652530Y-57220570D01*
X100638114Y-57204664D01*
X100625326Y-57187421D01*
X100614290Y-57169008D01*
X100605111Y-57149602D01*
X100597879Y-57129390D01*
X100592663Y-57108566D01*
X100589513Y-57087331D01*
X100588460Y-57065890D01*
X100588460Y-56553390D01*
X100589513Y-56531949D01*
X100592663Y-56510714D01*
X100597879Y-56489890D01*
X100605111Y-56469678D01*
X100614290Y-56450272D01*
X100625326Y-56431859D01*
X100638114Y-56414616D01*
X100652530Y-56398710D01*
X100668436Y-56384294D01*
X100685679Y-56371506D01*
X100704092Y-56360470D01*
X100723498Y-56351291D01*
X100743710Y-56344059D01*
X100764534Y-56338843D01*
X100785769Y-56335693D01*
X100807210Y-56334640D01*
X101244710Y-56334640D01*
X101266151Y-56335693D01*
X101266151Y-56335693D01*
G37*
D13*
X101025960Y-56809640D03*
D12*
G36*
X96731651Y-67874313D02*
G01*
X96752886Y-67877463D01*
X96773710Y-67882679D01*
X96793922Y-67889911D01*
X96813328Y-67899090D01*
X96831741Y-67910126D01*
X96848984Y-67922914D01*
X96864890Y-67937330D01*
X96879306Y-67953236D01*
X96892094Y-67970479D01*
X96903130Y-67988892D01*
X96912309Y-68008298D01*
X96919541Y-68028510D01*
X96924757Y-68049334D01*
X96927907Y-68070569D01*
X96928960Y-68092010D01*
X96928960Y-68529510D01*
X96927907Y-68550951D01*
X96924757Y-68572186D01*
X96919541Y-68593010D01*
X96912309Y-68613222D01*
X96903130Y-68632628D01*
X96892094Y-68651041D01*
X96879306Y-68668284D01*
X96864890Y-68684190D01*
X96848984Y-68698606D01*
X96831741Y-68711394D01*
X96813328Y-68722430D01*
X96793922Y-68731609D01*
X96773710Y-68738841D01*
X96752886Y-68744057D01*
X96731651Y-68747207D01*
X96710210Y-68748260D01*
X96197710Y-68748260D01*
X96176269Y-68747207D01*
X96155034Y-68744057D01*
X96134210Y-68738841D01*
X96113998Y-68731609D01*
X96094592Y-68722430D01*
X96076179Y-68711394D01*
X96058936Y-68698606D01*
X96043030Y-68684190D01*
X96028614Y-68668284D01*
X96015826Y-68651041D01*
X96004790Y-68632628D01*
X95995611Y-68613222D01*
X95988379Y-68593010D01*
X95983163Y-68572186D01*
X95980013Y-68550951D01*
X95978960Y-68529510D01*
X95978960Y-68092010D01*
X95980013Y-68070569D01*
X95983163Y-68049334D01*
X95988379Y-68028510D01*
X95995611Y-68008298D01*
X96004790Y-67988892D01*
X96015826Y-67970479D01*
X96028614Y-67953236D01*
X96043030Y-67937330D01*
X96058936Y-67922914D01*
X96076179Y-67910126D01*
X96094592Y-67899090D01*
X96113998Y-67889911D01*
X96134210Y-67882679D01*
X96155034Y-67877463D01*
X96176269Y-67874313D01*
X96197710Y-67873260D01*
X96710210Y-67873260D01*
X96731651Y-67874313D01*
X96731651Y-67874313D01*
G37*
D13*
X96453960Y-68310760D03*
D12*
G36*
X96731651Y-66299313D02*
G01*
X96752886Y-66302463D01*
X96773710Y-66307679D01*
X96793922Y-66314911D01*
X96813328Y-66324090D01*
X96831741Y-66335126D01*
X96848984Y-66347914D01*
X96864890Y-66362330D01*
X96879306Y-66378236D01*
X96892094Y-66395479D01*
X96903130Y-66413892D01*
X96912309Y-66433298D01*
X96919541Y-66453510D01*
X96924757Y-66474334D01*
X96927907Y-66495569D01*
X96928960Y-66517010D01*
X96928960Y-66954510D01*
X96927907Y-66975951D01*
X96924757Y-66997186D01*
X96919541Y-67018010D01*
X96912309Y-67038222D01*
X96903130Y-67057628D01*
X96892094Y-67076041D01*
X96879306Y-67093284D01*
X96864890Y-67109190D01*
X96848984Y-67123606D01*
X96831741Y-67136394D01*
X96813328Y-67147430D01*
X96793922Y-67156609D01*
X96773710Y-67163841D01*
X96752886Y-67169057D01*
X96731651Y-67172207D01*
X96710210Y-67173260D01*
X96197710Y-67173260D01*
X96176269Y-67172207D01*
X96155034Y-67169057D01*
X96134210Y-67163841D01*
X96113998Y-67156609D01*
X96094592Y-67147430D01*
X96076179Y-67136394D01*
X96058936Y-67123606D01*
X96043030Y-67109190D01*
X96028614Y-67093284D01*
X96015826Y-67076041D01*
X96004790Y-67057628D01*
X95995611Y-67038222D01*
X95988379Y-67018010D01*
X95983163Y-66997186D01*
X95980013Y-66975951D01*
X95978960Y-66954510D01*
X95978960Y-66517010D01*
X95980013Y-66495569D01*
X95983163Y-66474334D01*
X95988379Y-66453510D01*
X95995611Y-66433298D01*
X96004790Y-66413892D01*
X96015826Y-66395479D01*
X96028614Y-66378236D01*
X96043030Y-66362330D01*
X96058936Y-66347914D01*
X96076179Y-66335126D01*
X96094592Y-66324090D01*
X96113998Y-66314911D01*
X96134210Y-66307679D01*
X96155034Y-66302463D01*
X96176269Y-66299313D01*
X96197710Y-66298260D01*
X96710210Y-66298260D01*
X96731651Y-66299313D01*
X96731651Y-66299313D01*
G37*
D13*
X96453960Y-66735760D03*
M02*
