%FSLAX45Y45*%
G04 Gerber Fmt 4.5, Leading zero omitted, Abs format (unit mm)*
G04 Created by KiCad (PCBNEW (5.1.2)-2) date 2020-12-09 13:32:42*
%MOMM*%
%LPD*%
G04 APERTURE LIST*
%ADD10C,0.500000*%
%ADD11C,0.100000*%
%ADD12C,0.050000*%
%ADD13C,0.200000*%
%ADD14C,0.300000*%
G04 APERTURE END LIST*
D10*
X12679660Y-6666484D02*
G75*
G03X12679660Y-6666484I-160000J0D01*
G01*
X9691096Y-5055128D02*
G75*
G03X9691096Y-5055128I-160000J0D01*
G01*
D11*
X8890000Y-4787900D02*
X8890000Y-6985000D01*
X14579600Y-4787900D02*
X8890000Y-4787900D01*
X14579600Y-6985000D02*
X14579600Y-4787900D01*
X8890000Y-6985000D02*
X14579600Y-6985000D01*
D12*
X15875000Y-4451350D02*
X15875000Y-4451350D01*
D13*
X9914448Y-5657408D02*
X9954448Y-5697408D01*
X9954448Y-5657408D02*
X9914448Y-5697408D01*
X10861868Y-5230180D02*
X10901868Y-5270180D01*
X10901868Y-5230180D02*
X10861868Y-5270180D01*
X12973760Y-5029000D02*
G75*
G03X12973760Y-5029000I-35000J0D01*
G01*
X12973760Y-5781040D02*
G75*
G03X12973760Y-5781040I-35000J0D01*
G01*
X12973760Y-6288040D02*
G75*
G03X12973760Y-6288040I-35000J0D01*
G01*
X12973760Y-6797040D02*
G75*
G03X12973760Y-6797040I-35000J0D01*
G01*
X13735760Y-5019040D02*
G75*
G03X13735760Y-5019040I-35000J0D01*
G01*
X13735760Y-5781040D02*
G75*
G03X13735760Y-5781040I-35000J0D01*
G01*
X13736760Y-6290040D02*
G75*
G03X13736760Y-6290040I-35000J0D01*
G01*
X13736760Y-6798040D02*
G75*
G03X13736760Y-6798040I-35000J0D01*
G01*
X10525200Y-5029000D02*
G75*
G03X10525200Y-5029000I-35000J0D01*
G01*
X10525200Y-5791200D02*
G75*
G03X10525200Y-5791200I-35000J0D01*
G01*
X10525200Y-6298200D02*
G75*
G03X10525200Y-6298200I-35000J0D01*
G01*
X10525200Y-6807200D02*
G75*
G03X10525200Y-6807200I-35000J0D01*
G01*
X11287200Y-5029200D02*
G75*
G03X11287200Y-5029200I-35000J0D01*
G01*
X11287200Y-5791200D02*
G75*
G03X11287200Y-5791200I-35000J0D01*
G01*
X11288200Y-6300200D02*
G75*
G03X11288200Y-6300200I-35000J0D01*
G01*
X11288200Y-6808200D02*
G75*
G03X11288200Y-6808200I-35000J0D01*
G01*
X14193520Y-5483920D02*
X14193520Y-5578920D01*
X14146020Y-5531420D02*
X14241020Y-5531420D01*
X14193520Y-5733920D02*
X14193520Y-5828920D01*
X14146020Y-5781420D02*
X14241020Y-5781420D01*
X14193520Y-5983920D02*
X14193520Y-6078920D01*
X14146020Y-6031420D02*
X14241020Y-6031420D01*
X14193520Y-6233920D02*
X14193520Y-6328920D01*
X14146020Y-6281420D02*
X14241020Y-6281420D01*
X11706160Y-6012940D02*
X11706160Y-6107940D01*
X11658660Y-6060440D02*
X11753660Y-6060440D01*
X11956160Y-6012940D02*
X11956160Y-6107940D01*
X11908660Y-6060440D02*
X12003660Y-6060440D01*
X12206160Y-6012940D02*
X12206160Y-6107940D01*
X12158660Y-6060440D02*
X12253660Y-6060440D01*
X12456640Y-6012940D02*
X12456640Y-6107940D01*
X12409140Y-6060440D02*
X12504140Y-6060440D01*
X9192260Y-5872540D02*
X9192260Y-5967540D01*
X9144760Y-5920040D02*
X9239760Y-5920040D01*
X9192260Y-6122540D02*
X9192260Y-6217540D01*
X9144760Y-6170040D02*
X9239760Y-6170040D01*
X9192260Y-6372540D02*
X9192260Y-6467540D01*
X9144760Y-6420040D02*
X9239760Y-6420040D01*
X9192260Y-6622540D02*
X9192260Y-6717540D01*
X9144760Y-6670040D02*
X9239760Y-6670040D01*
X11698540Y-5256020D02*
X11698540Y-5351020D01*
X11651040Y-5303520D02*
X11746040Y-5303520D01*
X11948540Y-5256020D02*
X11948540Y-5351020D01*
X11901040Y-5303520D02*
X11996040Y-5303520D01*
X12198540Y-5256020D02*
X12198540Y-5351020D01*
X12151040Y-5303520D02*
X12246040Y-5303520D01*
X12443940Y-5256020D02*
X12443940Y-5351020D01*
X12396440Y-5303520D02*
X12491440Y-5303520D01*
D14*
X9171428Y-7455714D02*
X9171428Y-7155714D01*
X9242857Y-7155714D01*
X9285714Y-7170000D01*
X9314286Y-7198571D01*
X9328571Y-7227143D01*
X9342857Y-7284286D01*
X9342857Y-7327143D01*
X9328571Y-7384286D01*
X9314286Y-7412857D01*
X9285714Y-7441429D01*
X9242857Y-7455714D01*
X9171428Y-7455714D01*
X9471428Y-7455714D02*
X9471428Y-7255714D01*
X9471428Y-7312857D02*
X9485714Y-7284286D01*
X9500000Y-7270000D01*
X9528571Y-7255714D01*
X9557143Y-7255714D01*
X9657143Y-7455714D02*
X9657143Y-7255714D01*
X9657143Y-7155714D02*
X9642857Y-7170000D01*
X9657143Y-7184286D01*
X9671428Y-7170000D01*
X9657143Y-7155714D01*
X9657143Y-7184286D01*
X9842857Y-7455714D02*
X9814286Y-7441429D01*
X9800000Y-7412857D01*
X9800000Y-7155714D01*
X10000000Y-7455714D02*
X9971428Y-7441429D01*
X9957143Y-7412857D01*
X9957143Y-7155714D01*
X10342857Y-7455714D02*
X10342857Y-7155714D01*
X10442857Y-7370000D01*
X10542857Y-7155714D01*
X10542857Y-7455714D01*
X10814286Y-7455714D02*
X10814286Y-7298571D01*
X10800000Y-7270000D01*
X10771428Y-7255714D01*
X10714286Y-7255714D01*
X10685714Y-7270000D01*
X10814286Y-7441429D02*
X10785714Y-7455714D01*
X10714286Y-7455714D01*
X10685714Y-7441429D01*
X10671428Y-7412857D01*
X10671428Y-7384286D01*
X10685714Y-7355714D01*
X10714286Y-7341429D01*
X10785714Y-7341429D01*
X10814286Y-7327143D01*
X10957143Y-7255714D02*
X10957143Y-7555714D01*
X10957143Y-7270000D02*
X10985714Y-7255714D01*
X11042857Y-7255714D01*
X11071428Y-7270000D01*
X11085714Y-7284286D01*
X11100000Y-7312857D01*
X11100000Y-7398571D01*
X11085714Y-7427143D01*
X11071428Y-7441429D01*
X11042857Y-7455714D01*
X10985714Y-7455714D01*
X10957143Y-7441429D01*
X11228571Y-7427143D02*
X11242857Y-7441429D01*
X11228571Y-7455714D01*
X11214286Y-7441429D01*
X11228571Y-7427143D01*
X11228571Y-7455714D01*
X11228571Y-7270000D02*
X11242857Y-7284286D01*
X11228571Y-7298571D01*
X11214286Y-7284286D01*
X11228571Y-7270000D01*
X11228571Y-7298571D01*
X8845000Y-7930000D02*
X8885000Y-7970000D01*
X8885000Y-7930000D02*
X8845000Y-7970000D01*
X9228571Y-7785714D02*
X9257143Y-7785714D01*
X9285714Y-7800000D01*
X9300000Y-7814286D01*
X9314286Y-7842857D01*
X9328571Y-7900000D01*
X9328571Y-7971429D01*
X9314286Y-8028571D01*
X9300000Y-8057143D01*
X9285714Y-8071429D01*
X9257143Y-8085714D01*
X9228571Y-8085714D01*
X9200000Y-8071429D01*
X9185714Y-8057143D01*
X9171428Y-8028571D01*
X9157143Y-7971429D01*
X9157143Y-7900000D01*
X9171428Y-7842857D01*
X9185714Y-7814286D01*
X9200000Y-7800000D01*
X9228571Y-7785714D01*
X9457143Y-8057143D02*
X9471428Y-8071429D01*
X9457143Y-8085714D01*
X9442857Y-8071429D01*
X9457143Y-8057143D01*
X9457143Y-8085714D01*
X9728571Y-7885714D02*
X9728571Y-8085714D01*
X9657143Y-7771429D02*
X9585714Y-7985714D01*
X9771428Y-7985714D01*
X9942857Y-7785714D02*
X9971428Y-7785714D01*
X10000000Y-7800000D01*
X10014286Y-7814286D01*
X10028571Y-7842857D01*
X10042857Y-7900000D01*
X10042857Y-7971429D01*
X10028571Y-8028571D01*
X10014286Y-8057143D01*
X10000000Y-8071429D01*
X9971428Y-8085714D01*
X9942857Y-8085714D01*
X9914286Y-8071429D01*
X9900000Y-8057143D01*
X9885714Y-8028571D01*
X9871428Y-7971429D01*
X9871428Y-7900000D01*
X9885714Y-7842857D01*
X9900000Y-7814286D01*
X9914286Y-7800000D01*
X9942857Y-7785714D01*
X10171428Y-8085714D02*
X10171428Y-7885714D01*
X10171428Y-7914286D02*
X10185714Y-7900000D01*
X10214286Y-7885714D01*
X10257143Y-7885714D01*
X10285714Y-7900000D01*
X10300000Y-7928571D01*
X10300000Y-8085714D01*
X10300000Y-7928571D02*
X10314286Y-7900000D01*
X10342857Y-7885714D01*
X10385714Y-7885714D01*
X10414286Y-7900000D01*
X10428571Y-7928571D01*
X10428571Y-8085714D01*
X10571428Y-8085714D02*
X10571428Y-7885714D01*
X10571428Y-7914286D02*
X10585714Y-7900000D01*
X10614286Y-7885714D01*
X10657143Y-7885714D01*
X10685714Y-7900000D01*
X10700000Y-7928571D01*
X10700000Y-8085714D01*
X10700000Y-7928571D02*
X10714286Y-7900000D01*
X10742857Y-7885714D01*
X10785714Y-7885714D01*
X10814286Y-7900000D01*
X10828571Y-7928571D01*
X10828571Y-8085714D01*
X11414286Y-7771429D02*
X11157143Y-8157143D01*
X11800000Y-7785714D02*
X11828571Y-7785714D01*
X11857143Y-7800000D01*
X11871428Y-7814286D01*
X11885714Y-7842857D01*
X11900000Y-7900000D01*
X11900000Y-7971429D01*
X11885714Y-8028571D01*
X11871428Y-8057143D01*
X11857143Y-8071429D01*
X11828571Y-8085714D01*
X11800000Y-8085714D01*
X11771428Y-8071429D01*
X11757143Y-8057143D01*
X11742857Y-8028571D01*
X11728571Y-7971429D01*
X11728571Y-7900000D01*
X11742857Y-7842857D01*
X11757143Y-7814286D01*
X11771428Y-7800000D01*
X11800000Y-7785714D01*
X12028571Y-8057143D02*
X12042857Y-8071429D01*
X12028571Y-8085714D01*
X12014286Y-8071429D01*
X12028571Y-8057143D01*
X12028571Y-8085714D01*
X12228571Y-7785714D02*
X12257143Y-7785714D01*
X12285714Y-7800000D01*
X12300000Y-7814286D01*
X12314286Y-7842857D01*
X12328571Y-7900000D01*
X12328571Y-7971429D01*
X12314286Y-8028571D01*
X12300000Y-8057143D01*
X12285714Y-8071429D01*
X12257143Y-8085714D01*
X12228571Y-8085714D01*
X12200000Y-8071429D01*
X12185714Y-8057143D01*
X12171428Y-8028571D01*
X12157143Y-7971429D01*
X12157143Y-7900000D01*
X12171428Y-7842857D01*
X12185714Y-7814286D01*
X12200000Y-7800000D01*
X12228571Y-7785714D01*
X12614286Y-8085714D02*
X12442857Y-8085714D01*
X12528571Y-8085714D02*
X12528571Y-7785714D01*
X12500000Y-7828571D01*
X12471428Y-7857143D01*
X12442857Y-7871429D01*
X12871428Y-7785714D02*
X12814286Y-7785714D01*
X12785714Y-7800000D01*
X12771428Y-7814286D01*
X12742857Y-7857143D01*
X12728571Y-7914286D01*
X12728571Y-8028571D01*
X12742857Y-8057143D01*
X12757143Y-8071429D01*
X12785714Y-8085714D01*
X12842857Y-8085714D01*
X12871428Y-8071429D01*
X12885714Y-8057143D01*
X12900000Y-8028571D01*
X12900000Y-7957143D01*
X12885714Y-7928571D01*
X12871428Y-7914286D01*
X12842857Y-7900000D01*
X12785714Y-7900000D01*
X12757143Y-7914286D01*
X12742857Y-7928571D01*
X12728571Y-7957143D01*
X13014286Y-7785714D02*
X13014286Y-7842857D01*
X13128571Y-7785714D02*
X13128571Y-7842857D01*
X13571428Y-8200000D02*
X13557143Y-8185714D01*
X13528571Y-8142857D01*
X13514286Y-8114286D01*
X13500000Y-8071429D01*
X13485714Y-8000000D01*
X13485714Y-7942857D01*
X13500000Y-7871429D01*
X13514286Y-7828571D01*
X13528571Y-7800000D01*
X13557143Y-7757143D01*
X13571428Y-7742857D01*
X13671428Y-7814286D02*
X13685714Y-7800000D01*
X13714286Y-7785714D01*
X13785714Y-7785714D01*
X13814286Y-7800000D01*
X13828571Y-7814286D01*
X13842857Y-7842857D01*
X13842857Y-7871429D01*
X13828571Y-7914286D01*
X13657143Y-8085714D01*
X13842857Y-8085714D01*
X14200000Y-8085714D02*
X14200000Y-7785714D01*
X14328571Y-8085714D02*
X14328571Y-7928571D01*
X14314286Y-7900000D01*
X14285714Y-7885714D01*
X14242857Y-7885714D01*
X14214286Y-7900000D01*
X14200000Y-7914286D01*
X14514286Y-8085714D02*
X14485714Y-8071429D01*
X14471428Y-8057143D01*
X14457143Y-8028571D01*
X14457143Y-7942857D01*
X14471428Y-7914286D01*
X14485714Y-7900000D01*
X14514286Y-7885714D01*
X14557143Y-7885714D01*
X14585714Y-7900000D01*
X14600000Y-7914286D01*
X14614286Y-7942857D01*
X14614286Y-8028571D01*
X14600000Y-8057143D01*
X14585714Y-8071429D01*
X14557143Y-8085714D01*
X14514286Y-8085714D01*
X14785714Y-8085714D02*
X14757143Y-8071429D01*
X14742857Y-8042857D01*
X14742857Y-7785714D01*
X15014286Y-8071429D02*
X14985714Y-8085714D01*
X14928571Y-8085714D01*
X14900000Y-8071429D01*
X14885714Y-8042857D01*
X14885714Y-7928571D01*
X14900000Y-7900000D01*
X14928571Y-7885714D01*
X14985714Y-7885714D01*
X15014286Y-7900000D01*
X15028571Y-7928571D01*
X15028571Y-7957143D01*
X14885714Y-7985714D01*
X15142857Y-8071429D02*
X15171428Y-8085714D01*
X15228571Y-8085714D01*
X15257143Y-8071429D01*
X15271428Y-8042857D01*
X15271428Y-8028571D01*
X15257143Y-8000000D01*
X15228571Y-7985714D01*
X15185714Y-7985714D01*
X15157143Y-7971429D01*
X15142857Y-7942857D01*
X15142857Y-7928571D01*
X15157143Y-7900000D01*
X15185714Y-7885714D01*
X15228571Y-7885714D01*
X15257143Y-7900000D01*
X15371428Y-8200000D02*
X15385714Y-8185714D01*
X15414286Y-8142857D01*
X15428571Y-8114286D01*
X15442857Y-8071429D01*
X15457143Y-8000000D01*
X15457143Y-7942857D01*
X15442857Y-7871429D01*
X15428571Y-7828571D01*
X15414286Y-7800000D01*
X15385714Y-7757143D01*
X15371428Y-7742857D01*
X8885000Y-8346000D02*
G75*
G03X8885000Y-8346000I-35000J0D01*
G01*
X9228571Y-8181714D02*
X9257143Y-8181714D01*
X9285714Y-8196000D01*
X9300000Y-8210286D01*
X9314286Y-8238857D01*
X9328571Y-8296000D01*
X9328571Y-8367429D01*
X9314286Y-8424572D01*
X9300000Y-8453143D01*
X9285714Y-8467429D01*
X9257143Y-8481714D01*
X9228571Y-8481714D01*
X9200000Y-8467429D01*
X9185714Y-8453143D01*
X9171428Y-8424572D01*
X9157143Y-8367429D01*
X9157143Y-8296000D01*
X9171428Y-8238857D01*
X9185714Y-8210286D01*
X9200000Y-8196000D01*
X9228571Y-8181714D01*
X9457143Y-8453143D02*
X9471428Y-8467429D01*
X9457143Y-8481714D01*
X9442857Y-8467429D01*
X9457143Y-8453143D01*
X9457143Y-8481714D01*
X9571428Y-8181714D02*
X9771428Y-8181714D01*
X9642857Y-8481714D01*
X9942857Y-8181714D02*
X9971428Y-8181714D01*
X10000000Y-8196000D01*
X10014286Y-8210286D01*
X10028571Y-8238857D01*
X10042857Y-8296000D01*
X10042857Y-8367429D01*
X10028571Y-8424572D01*
X10014286Y-8453143D01*
X10000000Y-8467429D01*
X9971428Y-8481714D01*
X9942857Y-8481714D01*
X9914286Y-8467429D01*
X9900000Y-8453143D01*
X9885714Y-8424572D01*
X9871428Y-8367429D01*
X9871428Y-8296000D01*
X9885714Y-8238857D01*
X9900000Y-8210286D01*
X9914286Y-8196000D01*
X9942857Y-8181714D01*
X10171428Y-8481714D02*
X10171428Y-8281714D01*
X10171428Y-8310286D02*
X10185714Y-8296000D01*
X10214286Y-8281714D01*
X10257143Y-8281714D01*
X10285714Y-8296000D01*
X10300000Y-8324571D01*
X10300000Y-8481714D01*
X10300000Y-8324571D02*
X10314286Y-8296000D01*
X10342857Y-8281714D01*
X10385714Y-8281714D01*
X10414286Y-8296000D01*
X10428571Y-8324571D01*
X10428571Y-8481714D01*
X10571428Y-8481714D02*
X10571428Y-8281714D01*
X10571428Y-8310286D02*
X10585714Y-8296000D01*
X10614286Y-8281714D01*
X10657143Y-8281714D01*
X10685714Y-8296000D01*
X10700000Y-8324571D01*
X10700000Y-8481714D01*
X10700000Y-8324571D02*
X10714286Y-8296000D01*
X10742857Y-8281714D01*
X10785714Y-8281714D01*
X10814286Y-8296000D01*
X10828571Y-8324571D01*
X10828571Y-8481714D01*
X11414286Y-8167429D02*
X11157143Y-8553143D01*
X11800000Y-8181714D02*
X11828571Y-8181714D01*
X11857143Y-8196000D01*
X11871428Y-8210286D01*
X11885714Y-8238857D01*
X11900000Y-8296000D01*
X11900000Y-8367429D01*
X11885714Y-8424572D01*
X11871428Y-8453143D01*
X11857143Y-8467429D01*
X11828571Y-8481714D01*
X11800000Y-8481714D01*
X11771428Y-8467429D01*
X11757143Y-8453143D01*
X11742857Y-8424572D01*
X11728571Y-8367429D01*
X11728571Y-8296000D01*
X11742857Y-8238857D01*
X11757143Y-8210286D01*
X11771428Y-8196000D01*
X11800000Y-8181714D01*
X12028571Y-8453143D02*
X12042857Y-8467429D01*
X12028571Y-8481714D01*
X12014286Y-8467429D01*
X12028571Y-8453143D01*
X12028571Y-8481714D01*
X12228571Y-8181714D02*
X12257143Y-8181714D01*
X12285714Y-8196000D01*
X12300000Y-8210286D01*
X12314286Y-8238857D01*
X12328571Y-8296000D01*
X12328571Y-8367429D01*
X12314286Y-8424572D01*
X12300000Y-8453143D01*
X12285714Y-8467429D01*
X12257143Y-8481714D01*
X12228571Y-8481714D01*
X12200000Y-8467429D01*
X12185714Y-8453143D01*
X12171428Y-8424572D01*
X12157143Y-8367429D01*
X12157143Y-8296000D01*
X12171428Y-8238857D01*
X12185714Y-8210286D01*
X12200000Y-8196000D01*
X12228571Y-8181714D01*
X12442857Y-8210286D02*
X12457143Y-8196000D01*
X12485714Y-8181714D01*
X12557143Y-8181714D01*
X12585714Y-8196000D01*
X12600000Y-8210286D01*
X12614286Y-8238857D01*
X12614286Y-8267429D01*
X12600000Y-8310286D01*
X12428571Y-8481714D01*
X12614286Y-8481714D01*
X12785714Y-8310286D02*
X12757143Y-8296000D01*
X12742857Y-8281714D01*
X12728571Y-8253143D01*
X12728571Y-8238857D01*
X12742857Y-8210286D01*
X12757143Y-8196000D01*
X12785714Y-8181714D01*
X12842857Y-8181714D01*
X12871428Y-8196000D01*
X12885714Y-8210286D01*
X12900000Y-8238857D01*
X12900000Y-8253143D01*
X12885714Y-8281714D01*
X12871428Y-8296000D01*
X12842857Y-8310286D01*
X12785714Y-8310286D01*
X12757143Y-8324571D01*
X12742857Y-8338857D01*
X12728571Y-8367429D01*
X12728571Y-8424572D01*
X12742857Y-8453143D01*
X12757143Y-8467429D01*
X12785714Y-8481714D01*
X12842857Y-8481714D01*
X12871428Y-8467429D01*
X12885714Y-8453143D01*
X12900000Y-8424572D01*
X12900000Y-8367429D01*
X12885714Y-8338857D01*
X12871428Y-8324571D01*
X12842857Y-8310286D01*
X13014286Y-8181714D02*
X13014286Y-8238857D01*
X13128571Y-8181714D02*
X13128571Y-8238857D01*
X13571428Y-8596000D02*
X13557143Y-8581714D01*
X13528571Y-8538857D01*
X13514286Y-8510286D01*
X13500000Y-8467429D01*
X13485714Y-8396000D01*
X13485714Y-8338857D01*
X13500000Y-8267429D01*
X13514286Y-8224571D01*
X13528571Y-8196000D01*
X13557143Y-8153143D01*
X13571428Y-8138857D01*
X13842857Y-8481714D02*
X13671428Y-8481714D01*
X13757143Y-8481714D02*
X13757143Y-8181714D01*
X13728571Y-8224571D01*
X13700000Y-8253143D01*
X13671428Y-8267429D01*
X14100000Y-8181714D02*
X14042857Y-8181714D01*
X14014286Y-8196000D01*
X14000000Y-8210286D01*
X13971428Y-8253143D01*
X13957143Y-8310286D01*
X13957143Y-8424572D01*
X13971428Y-8453143D01*
X13985714Y-8467429D01*
X14014286Y-8481714D01*
X14071428Y-8481714D01*
X14100000Y-8467429D01*
X14114286Y-8453143D01*
X14128571Y-8424572D01*
X14128571Y-8353143D01*
X14114286Y-8324571D01*
X14100000Y-8310286D01*
X14071428Y-8296000D01*
X14014286Y-8296000D01*
X13985714Y-8310286D01*
X13971428Y-8324571D01*
X13957143Y-8353143D01*
X14485714Y-8481714D02*
X14485714Y-8181714D01*
X14614286Y-8481714D02*
X14614286Y-8324571D01*
X14600000Y-8296000D01*
X14571428Y-8281714D01*
X14528571Y-8281714D01*
X14500000Y-8296000D01*
X14485714Y-8310286D01*
X14800000Y-8481714D02*
X14771428Y-8467429D01*
X14757143Y-8453143D01*
X14742857Y-8424572D01*
X14742857Y-8338857D01*
X14757143Y-8310286D01*
X14771428Y-8296000D01*
X14800000Y-8281714D01*
X14842857Y-8281714D01*
X14871428Y-8296000D01*
X14885714Y-8310286D01*
X14900000Y-8338857D01*
X14900000Y-8424572D01*
X14885714Y-8453143D01*
X14871428Y-8467429D01*
X14842857Y-8481714D01*
X14800000Y-8481714D01*
X15071428Y-8481714D02*
X15042857Y-8467429D01*
X15028571Y-8438857D01*
X15028571Y-8181714D01*
X15300000Y-8467429D02*
X15271428Y-8481714D01*
X15214286Y-8481714D01*
X15185714Y-8467429D01*
X15171428Y-8438857D01*
X15171428Y-8324571D01*
X15185714Y-8296000D01*
X15214286Y-8281714D01*
X15271428Y-8281714D01*
X15300000Y-8296000D01*
X15314286Y-8324571D01*
X15314286Y-8353143D01*
X15171428Y-8381714D01*
X15428571Y-8467429D02*
X15457143Y-8481714D01*
X15514286Y-8481714D01*
X15542857Y-8467429D01*
X15557143Y-8438857D01*
X15557143Y-8424572D01*
X15542857Y-8396000D01*
X15514286Y-8381714D01*
X15471428Y-8381714D01*
X15442857Y-8367429D01*
X15428571Y-8338857D01*
X15428571Y-8324571D01*
X15442857Y-8296000D01*
X15471428Y-8281714D01*
X15514286Y-8281714D01*
X15542857Y-8296000D01*
X15657143Y-8596000D02*
X15671428Y-8581714D01*
X15700000Y-8538857D01*
X15714286Y-8510286D01*
X15728571Y-8467429D01*
X15742857Y-8396000D01*
X15742857Y-8338857D01*
X15728571Y-8267429D01*
X15714286Y-8224571D01*
X15700000Y-8196000D01*
X15671428Y-8153143D01*
X15657143Y-8138857D01*
X8837500Y-8694500D02*
X8837500Y-8789500D01*
X8790000Y-8742000D02*
X8885000Y-8742000D01*
X9228571Y-8577714D02*
X9257143Y-8577714D01*
X9285714Y-8592000D01*
X9300000Y-8606286D01*
X9314286Y-8634857D01*
X9328571Y-8692000D01*
X9328571Y-8763429D01*
X9314286Y-8820572D01*
X9300000Y-8849143D01*
X9285714Y-8863429D01*
X9257143Y-8877714D01*
X9228571Y-8877714D01*
X9200000Y-8863429D01*
X9185714Y-8849143D01*
X9171428Y-8820572D01*
X9157143Y-8763429D01*
X9157143Y-8692000D01*
X9171428Y-8634857D01*
X9185714Y-8606286D01*
X9200000Y-8592000D01*
X9228571Y-8577714D01*
X9457143Y-8849143D02*
X9471428Y-8863429D01*
X9457143Y-8877714D01*
X9442857Y-8863429D01*
X9457143Y-8849143D01*
X9457143Y-8877714D01*
X9614286Y-8877714D02*
X9671428Y-8877714D01*
X9700000Y-8863429D01*
X9714286Y-8849143D01*
X9742857Y-8806286D01*
X9757143Y-8749143D01*
X9757143Y-8634857D01*
X9742857Y-8606286D01*
X9728571Y-8592000D01*
X9700000Y-8577714D01*
X9642857Y-8577714D01*
X9614286Y-8592000D01*
X9600000Y-8606286D01*
X9585714Y-8634857D01*
X9585714Y-8706286D01*
X9600000Y-8734857D01*
X9614286Y-8749143D01*
X9642857Y-8763429D01*
X9700000Y-8763429D01*
X9728571Y-8749143D01*
X9742857Y-8734857D01*
X9757143Y-8706286D01*
X10028571Y-8577714D02*
X9885714Y-8577714D01*
X9871428Y-8720572D01*
X9885714Y-8706286D01*
X9914286Y-8692000D01*
X9985714Y-8692000D01*
X10014286Y-8706286D01*
X10028571Y-8720572D01*
X10042857Y-8749143D01*
X10042857Y-8820572D01*
X10028571Y-8849143D01*
X10014286Y-8863429D01*
X9985714Y-8877714D01*
X9914286Y-8877714D01*
X9885714Y-8863429D01*
X9871428Y-8849143D01*
X10171428Y-8877714D02*
X10171428Y-8677714D01*
X10171428Y-8706286D02*
X10185714Y-8692000D01*
X10214286Y-8677714D01*
X10257143Y-8677714D01*
X10285714Y-8692000D01*
X10300000Y-8720572D01*
X10300000Y-8877714D01*
X10300000Y-8720572D02*
X10314286Y-8692000D01*
X10342857Y-8677714D01*
X10385714Y-8677714D01*
X10414286Y-8692000D01*
X10428571Y-8720572D01*
X10428571Y-8877714D01*
X10571428Y-8877714D02*
X10571428Y-8677714D01*
X10571428Y-8706286D02*
X10585714Y-8692000D01*
X10614286Y-8677714D01*
X10657143Y-8677714D01*
X10685714Y-8692000D01*
X10700000Y-8720572D01*
X10700000Y-8877714D01*
X10700000Y-8720572D02*
X10714286Y-8692000D01*
X10742857Y-8677714D01*
X10785714Y-8677714D01*
X10814286Y-8692000D01*
X10828571Y-8720572D01*
X10828571Y-8877714D01*
X11414286Y-8563429D02*
X11157143Y-8949143D01*
X11800000Y-8577714D02*
X11828571Y-8577714D01*
X11857143Y-8592000D01*
X11871428Y-8606286D01*
X11885714Y-8634857D01*
X11900000Y-8692000D01*
X11900000Y-8763429D01*
X11885714Y-8820572D01*
X11871428Y-8849143D01*
X11857143Y-8863429D01*
X11828571Y-8877714D01*
X11800000Y-8877714D01*
X11771428Y-8863429D01*
X11757143Y-8849143D01*
X11742857Y-8820572D01*
X11728571Y-8763429D01*
X11728571Y-8692000D01*
X11742857Y-8634857D01*
X11757143Y-8606286D01*
X11771428Y-8592000D01*
X11800000Y-8577714D01*
X12028571Y-8849143D02*
X12042857Y-8863429D01*
X12028571Y-8877714D01*
X12014286Y-8863429D01*
X12028571Y-8849143D01*
X12028571Y-8877714D01*
X12228571Y-8577714D02*
X12257143Y-8577714D01*
X12285714Y-8592000D01*
X12300000Y-8606286D01*
X12314286Y-8634857D01*
X12328571Y-8692000D01*
X12328571Y-8763429D01*
X12314286Y-8820572D01*
X12300000Y-8849143D01*
X12285714Y-8863429D01*
X12257143Y-8877714D01*
X12228571Y-8877714D01*
X12200000Y-8863429D01*
X12185714Y-8849143D01*
X12171428Y-8820572D01*
X12157143Y-8763429D01*
X12157143Y-8692000D01*
X12171428Y-8634857D01*
X12185714Y-8606286D01*
X12200000Y-8592000D01*
X12228571Y-8577714D01*
X12428571Y-8577714D02*
X12614286Y-8577714D01*
X12514286Y-8692000D01*
X12557143Y-8692000D01*
X12585714Y-8706286D01*
X12600000Y-8720572D01*
X12614286Y-8749143D01*
X12614286Y-8820572D01*
X12600000Y-8849143D01*
X12585714Y-8863429D01*
X12557143Y-8877714D01*
X12471428Y-8877714D01*
X12442857Y-8863429D01*
X12428571Y-8849143D01*
X12714286Y-8577714D02*
X12914286Y-8577714D01*
X12785714Y-8877714D01*
X13014286Y-8577714D02*
X13014286Y-8634857D01*
X13128571Y-8577714D02*
X13128571Y-8634857D01*
X13571428Y-8992000D02*
X13557143Y-8977714D01*
X13528571Y-8934857D01*
X13514286Y-8906286D01*
X13500000Y-8863429D01*
X13485714Y-8792000D01*
X13485714Y-8734857D01*
X13500000Y-8663429D01*
X13514286Y-8620572D01*
X13528571Y-8592000D01*
X13557143Y-8549143D01*
X13571428Y-8534857D01*
X13842857Y-8877714D02*
X13671428Y-8877714D01*
X13757143Y-8877714D02*
X13757143Y-8577714D01*
X13728571Y-8620572D01*
X13700000Y-8649143D01*
X13671428Y-8663429D01*
X14100000Y-8577714D02*
X14042857Y-8577714D01*
X14014286Y-8592000D01*
X14000000Y-8606286D01*
X13971428Y-8649143D01*
X13957143Y-8706286D01*
X13957143Y-8820572D01*
X13971428Y-8849143D01*
X13985714Y-8863429D01*
X14014286Y-8877714D01*
X14071428Y-8877714D01*
X14100000Y-8863429D01*
X14114286Y-8849143D01*
X14128571Y-8820572D01*
X14128571Y-8749143D01*
X14114286Y-8720572D01*
X14100000Y-8706286D01*
X14071428Y-8692000D01*
X14014286Y-8692000D01*
X13985714Y-8706286D01*
X13971428Y-8720572D01*
X13957143Y-8749143D01*
X14485714Y-8877714D02*
X14485714Y-8577714D01*
X14614286Y-8877714D02*
X14614286Y-8720572D01*
X14600000Y-8692000D01*
X14571428Y-8677714D01*
X14528571Y-8677714D01*
X14500000Y-8692000D01*
X14485714Y-8706286D01*
X14800000Y-8877714D02*
X14771428Y-8863429D01*
X14757143Y-8849143D01*
X14742857Y-8820572D01*
X14742857Y-8734857D01*
X14757143Y-8706286D01*
X14771428Y-8692000D01*
X14800000Y-8677714D01*
X14842857Y-8677714D01*
X14871428Y-8692000D01*
X14885714Y-8706286D01*
X14900000Y-8734857D01*
X14900000Y-8820572D01*
X14885714Y-8849143D01*
X14871428Y-8863429D01*
X14842857Y-8877714D01*
X14800000Y-8877714D01*
X15071428Y-8877714D02*
X15042857Y-8863429D01*
X15028571Y-8834857D01*
X15028571Y-8577714D01*
X15300000Y-8863429D02*
X15271428Y-8877714D01*
X15214286Y-8877714D01*
X15185714Y-8863429D01*
X15171428Y-8834857D01*
X15171428Y-8720572D01*
X15185714Y-8692000D01*
X15214286Y-8677714D01*
X15271428Y-8677714D01*
X15300000Y-8692000D01*
X15314286Y-8720572D01*
X15314286Y-8749143D01*
X15171428Y-8777714D01*
X15428571Y-8863429D02*
X15457143Y-8877714D01*
X15514286Y-8877714D01*
X15542857Y-8863429D01*
X15557143Y-8834857D01*
X15557143Y-8820572D01*
X15542857Y-8792000D01*
X15514286Y-8777714D01*
X15471428Y-8777714D01*
X15442857Y-8763429D01*
X15428571Y-8734857D01*
X15428571Y-8720572D01*
X15442857Y-8692000D01*
X15471428Y-8677714D01*
X15514286Y-8677714D01*
X15542857Y-8692000D01*
X15657143Y-8992000D02*
X15671428Y-8977714D01*
X15700000Y-8934857D01*
X15714286Y-8906286D01*
X15728571Y-8863429D01*
X15742857Y-8792000D01*
X15742857Y-8734857D01*
X15728571Y-8663429D01*
X15714286Y-8620572D01*
X15700000Y-8592000D01*
X15671428Y-8549143D01*
X15657143Y-8534857D01*
M02*
