M48
; DRILL file {KiCad (5.1.2)-2} date 09.12.2020 13:32:41
; FORMAT={-:-/ absolute / metric / decimal}
; #@! TF.CreationDate,2020-12-09T13:32:41+01:00
; #@! TF.GenerationSoftware,Kicad,Pcbnew,(5.1.2)-2
; #@! TF.FileFunction,Plated,1,2,PTH
FMAT,2
METRIC
T1C0.400
T2C0.700
T3C0.950
%
G90
G05
T1
X99.344Y-56.774
X108.819Y-52.502
T2
X129.388Y-50.29
X129.388Y-57.81
X129.388Y-62.88
X129.388Y-67.97
X137.008Y-50.19
X137.008Y-57.81
X137.018Y-62.9
X137.018Y-67.98
X104.902Y-50.29
X104.902Y-57.912
X104.902Y-62.982
X104.902Y-68.072
X112.522Y-50.292
X112.522Y-57.912
X112.532Y-63.002
X112.532Y-68.082
T3
X141.935Y-55.314
X141.935Y-57.814
X141.935Y-60.314
X141.935Y-62.814
X117.062Y-60.604
X119.562Y-60.604
X122.062Y-60.604
X124.566Y-60.604
X91.923Y-59.2
X91.923Y-61.7
X91.923Y-64.2
X91.923Y-66.7
X116.985Y-53.035
X119.485Y-53.035
X121.985Y-53.035
X124.439Y-53.035
T0
M30
