%FSLAX45Y45*%
G04 Gerber Fmt 4.5, Leading zero omitted, Abs format (unit mm)*
G04 Created by KiCad (PCBNEW (5.1.2)-2) date 2020-12-09 13:32:42*
%MOMM*%
%LPD*%
G04 APERTURE LIST*
%ADD10C,0.500000*%
%ADD11C,0.100000*%
%ADD12C,0.050000*%
%ADD13C,0.200000*%
%ADD14C,0.300000*%
G04 APERTURE END LIST*
D10*
X12679660Y-6666484D02*
G75*
G03X12679660Y-6666484I-160000J0D01*
G01*
X9691096Y-5055128D02*
G75*
G03X9691096Y-5055128I-160000J0D01*
G01*
D11*
X8890000Y-4787900D02*
X8890000Y-6985000D01*
X14579600Y-4787900D02*
X8890000Y-4787900D01*
X14579600Y-6985000D02*
X14579600Y-4787900D01*
X8890000Y-6985000D02*
X14579600Y-6985000D01*
D12*
X15875000Y-4451350D02*
X15875000Y-4451350D01*
D13*
D14*
X9171428Y-7455714D02*
X9171428Y-7155714D01*
X9242857Y-7155714D01*
X9285714Y-7170000D01*
X9314286Y-7198571D01*
X9328571Y-7227143D01*
X9342857Y-7284286D01*
X9342857Y-7327143D01*
X9328571Y-7384286D01*
X9314286Y-7412857D01*
X9285714Y-7441429D01*
X9242857Y-7455714D01*
X9171428Y-7455714D01*
X9471428Y-7455714D02*
X9471428Y-7255714D01*
X9471428Y-7312857D02*
X9485714Y-7284286D01*
X9500000Y-7270000D01*
X9528571Y-7255714D01*
X9557143Y-7255714D01*
X9657143Y-7455714D02*
X9657143Y-7255714D01*
X9657143Y-7155714D02*
X9642857Y-7170000D01*
X9657143Y-7184286D01*
X9671428Y-7170000D01*
X9657143Y-7155714D01*
X9657143Y-7184286D01*
X9842857Y-7455714D02*
X9814286Y-7441429D01*
X9800000Y-7412857D01*
X9800000Y-7155714D01*
X10000000Y-7455714D02*
X9971428Y-7441429D01*
X9957143Y-7412857D01*
X9957143Y-7155714D01*
X10342857Y-7455714D02*
X10342857Y-7155714D01*
X10442857Y-7370000D01*
X10542857Y-7155714D01*
X10542857Y-7455714D01*
X10814286Y-7455714D02*
X10814286Y-7298571D01*
X10800000Y-7270000D01*
X10771428Y-7255714D01*
X10714286Y-7255714D01*
X10685714Y-7270000D01*
X10814286Y-7441429D02*
X10785714Y-7455714D01*
X10714286Y-7455714D01*
X10685714Y-7441429D01*
X10671428Y-7412857D01*
X10671428Y-7384286D01*
X10685714Y-7355714D01*
X10714286Y-7341429D01*
X10785714Y-7341429D01*
X10814286Y-7327143D01*
X10957143Y-7255714D02*
X10957143Y-7555714D01*
X10957143Y-7270000D02*
X10985714Y-7255714D01*
X11042857Y-7255714D01*
X11071428Y-7270000D01*
X11085714Y-7284286D01*
X11100000Y-7312857D01*
X11100000Y-7398571D01*
X11085714Y-7427143D01*
X11071428Y-7441429D01*
X11042857Y-7455714D01*
X10985714Y-7455714D01*
X10957143Y-7441429D01*
X11228571Y-7427143D02*
X11242857Y-7441429D01*
X11228571Y-7455714D01*
X11214286Y-7441429D01*
X11228571Y-7427143D01*
X11228571Y-7455714D01*
X11228571Y-7270000D02*
X11242857Y-7284286D01*
X11228571Y-7298571D01*
X11214286Y-7284286D01*
X11228571Y-7270000D01*
X11228571Y-7298571D01*
M02*
