G04 #@! TF.GenerationSoftware,KiCad,Pcbnew,(5.1.2)-2*
G04 #@! TF.CreationDate,2020-12-09T13:32:10+01:00*
G04 #@! TF.ProjectId,Relay-Board,52656c61-792d-4426-9f61-72642e6b6963,rev?*
G04 #@! TF.SameCoordinates,Original*
G04 #@! TF.FileFunction,Copper,L2,Bot*
G04 #@! TF.FilePolarity,Positive*
%FSLAX46Y46*%
G04 Gerber Fmt 4.6, Leading zero omitted, Abs format (unit mm)*
G04 Created by KiCad (PCBNEW (5.1.2)-2) date 2020-12-09 13:32:10*
%MOMM*%
%LPD*%
G04 APERTURE LIST*
%ADD10C,0.100000*%
%ADD11C,0.875000*%
%ADD12C,1.400000*%
%ADD13R,1.400000X1.400000*%
%ADD14O,1.700000X1.950000*%
%ADD15C,1.700000*%
%ADD16O,1.950000X1.700000*%
%ADD17C,0.800000*%
%ADD18C,0.250000*%
%ADD19C,0.500000*%
%ADD20C,0.254000*%
G04 APERTURE END LIST*
D10*
G36*
X134250591Y-49818053D02*
G01*
X134271826Y-49821203D01*
X134292650Y-49826419D01*
X134312862Y-49833651D01*
X134332268Y-49842830D01*
X134350681Y-49853866D01*
X134367924Y-49866654D01*
X134383830Y-49881070D01*
X134398246Y-49896976D01*
X134411034Y-49914219D01*
X134422070Y-49932632D01*
X134431249Y-49952038D01*
X134438481Y-49972250D01*
X134443697Y-49993074D01*
X134446847Y-50014309D01*
X134447900Y-50035750D01*
X134447900Y-50548250D01*
X134446847Y-50569691D01*
X134443697Y-50590926D01*
X134438481Y-50611750D01*
X134431249Y-50631962D01*
X134422070Y-50651368D01*
X134411034Y-50669781D01*
X134398246Y-50687024D01*
X134383830Y-50702930D01*
X134367924Y-50717346D01*
X134350681Y-50730134D01*
X134332268Y-50741170D01*
X134312862Y-50750349D01*
X134292650Y-50757581D01*
X134271826Y-50762797D01*
X134250591Y-50765947D01*
X134229150Y-50767000D01*
X133791650Y-50767000D01*
X133770209Y-50765947D01*
X133748974Y-50762797D01*
X133728150Y-50757581D01*
X133707938Y-50750349D01*
X133688532Y-50741170D01*
X133670119Y-50730134D01*
X133652876Y-50717346D01*
X133636970Y-50702930D01*
X133622554Y-50687024D01*
X133609766Y-50669781D01*
X133598730Y-50651368D01*
X133589551Y-50631962D01*
X133582319Y-50611750D01*
X133577103Y-50590926D01*
X133573953Y-50569691D01*
X133572900Y-50548250D01*
X133572900Y-50035750D01*
X133573953Y-50014309D01*
X133577103Y-49993074D01*
X133582319Y-49972250D01*
X133589551Y-49952038D01*
X133598730Y-49932632D01*
X133609766Y-49914219D01*
X133622554Y-49896976D01*
X133636970Y-49881070D01*
X133652876Y-49866654D01*
X133670119Y-49853866D01*
X133688532Y-49842830D01*
X133707938Y-49833651D01*
X133728150Y-49826419D01*
X133748974Y-49821203D01*
X133770209Y-49818053D01*
X133791650Y-49817000D01*
X134229150Y-49817000D01*
X134250591Y-49818053D01*
X134250591Y-49818053D01*
G37*
D11*
X134010400Y-50292000D03*
D10*
G36*
X132667791Y-49818053D02*
G01*
X132689026Y-49821203D01*
X132709850Y-49826419D01*
X132730062Y-49833651D01*
X132749468Y-49842830D01*
X132767881Y-49853866D01*
X132785124Y-49866654D01*
X132801030Y-49881070D01*
X132815446Y-49896976D01*
X132828234Y-49914219D01*
X132839270Y-49932632D01*
X132848449Y-49952038D01*
X132855681Y-49972250D01*
X132860897Y-49993074D01*
X132864047Y-50014309D01*
X132865100Y-50035750D01*
X132865100Y-50548250D01*
X132864047Y-50569691D01*
X132860897Y-50590926D01*
X132855681Y-50611750D01*
X132848449Y-50631962D01*
X132839270Y-50651368D01*
X132828234Y-50669781D01*
X132815446Y-50687024D01*
X132801030Y-50702930D01*
X132785124Y-50717346D01*
X132767881Y-50730134D01*
X132749468Y-50741170D01*
X132730062Y-50750349D01*
X132709850Y-50757581D01*
X132689026Y-50762797D01*
X132667791Y-50765947D01*
X132646350Y-50767000D01*
X132208850Y-50767000D01*
X132187409Y-50765947D01*
X132166174Y-50762797D01*
X132145350Y-50757581D01*
X132125138Y-50750349D01*
X132105732Y-50741170D01*
X132087319Y-50730134D01*
X132070076Y-50717346D01*
X132054170Y-50702930D01*
X132039754Y-50687024D01*
X132026966Y-50669781D01*
X132015930Y-50651368D01*
X132006751Y-50631962D01*
X131999519Y-50611750D01*
X131994303Y-50590926D01*
X131991153Y-50569691D01*
X131990100Y-50548250D01*
X131990100Y-50035750D01*
X131991153Y-50014309D01*
X131994303Y-49993074D01*
X131999519Y-49972250D01*
X132006751Y-49952038D01*
X132015930Y-49932632D01*
X132026966Y-49914219D01*
X132039754Y-49896976D01*
X132054170Y-49881070D01*
X132070076Y-49866654D01*
X132087319Y-49853866D01*
X132105732Y-49842830D01*
X132125138Y-49833651D01*
X132145350Y-49826419D01*
X132166174Y-49821203D01*
X132187409Y-49818053D01*
X132208850Y-49817000D01*
X132646350Y-49817000D01*
X132667791Y-49818053D01*
X132667791Y-49818053D01*
G37*
D11*
X132427600Y-50292000D03*
D10*
G36*
X109866591Y-49792653D02*
G01*
X109887826Y-49795803D01*
X109908650Y-49801019D01*
X109928862Y-49808251D01*
X109948268Y-49817430D01*
X109966681Y-49828466D01*
X109983924Y-49841254D01*
X109999830Y-49855670D01*
X110014246Y-49871576D01*
X110027034Y-49888819D01*
X110038070Y-49907232D01*
X110047249Y-49926638D01*
X110054481Y-49946850D01*
X110059697Y-49967674D01*
X110062847Y-49988909D01*
X110063900Y-50010350D01*
X110063900Y-50522850D01*
X110062847Y-50544291D01*
X110059697Y-50565526D01*
X110054481Y-50586350D01*
X110047249Y-50606562D01*
X110038070Y-50625968D01*
X110027034Y-50644381D01*
X110014246Y-50661624D01*
X109999830Y-50677530D01*
X109983924Y-50691946D01*
X109966681Y-50704734D01*
X109948268Y-50715770D01*
X109928862Y-50724949D01*
X109908650Y-50732181D01*
X109887826Y-50737397D01*
X109866591Y-50740547D01*
X109845150Y-50741600D01*
X109407650Y-50741600D01*
X109386209Y-50740547D01*
X109364974Y-50737397D01*
X109344150Y-50732181D01*
X109323938Y-50724949D01*
X109304532Y-50715770D01*
X109286119Y-50704734D01*
X109268876Y-50691946D01*
X109252970Y-50677530D01*
X109238554Y-50661624D01*
X109225766Y-50644381D01*
X109214730Y-50625968D01*
X109205551Y-50606562D01*
X109198319Y-50586350D01*
X109193103Y-50565526D01*
X109189953Y-50544291D01*
X109188900Y-50522850D01*
X109188900Y-50010350D01*
X109189953Y-49988909D01*
X109193103Y-49967674D01*
X109198319Y-49946850D01*
X109205551Y-49926638D01*
X109214730Y-49907232D01*
X109225766Y-49888819D01*
X109238554Y-49871576D01*
X109252970Y-49855670D01*
X109268876Y-49841254D01*
X109286119Y-49828466D01*
X109304532Y-49817430D01*
X109323938Y-49808251D01*
X109344150Y-49801019D01*
X109364974Y-49795803D01*
X109386209Y-49792653D01*
X109407650Y-49791600D01*
X109845150Y-49791600D01*
X109866591Y-49792653D01*
X109866591Y-49792653D01*
G37*
D11*
X109626400Y-50266600D03*
D10*
G36*
X108283791Y-49792653D02*
G01*
X108305026Y-49795803D01*
X108325850Y-49801019D01*
X108346062Y-49808251D01*
X108365468Y-49817430D01*
X108383881Y-49828466D01*
X108401124Y-49841254D01*
X108417030Y-49855670D01*
X108431446Y-49871576D01*
X108444234Y-49888819D01*
X108455270Y-49907232D01*
X108464449Y-49926638D01*
X108471681Y-49946850D01*
X108476897Y-49967674D01*
X108480047Y-49988909D01*
X108481100Y-50010350D01*
X108481100Y-50522850D01*
X108480047Y-50544291D01*
X108476897Y-50565526D01*
X108471681Y-50586350D01*
X108464449Y-50606562D01*
X108455270Y-50625968D01*
X108444234Y-50644381D01*
X108431446Y-50661624D01*
X108417030Y-50677530D01*
X108401124Y-50691946D01*
X108383881Y-50704734D01*
X108365468Y-50715770D01*
X108346062Y-50724949D01*
X108325850Y-50732181D01*
X108305026Y-50737397D01*
X108283791Y-50740547D01*
X108262350Y-50741600D01*
X107824850Y-50741600D01*
X107803409Y-50740547D01*
X107782174Y-50737397D01*
X107761350Y-50732181D01*
X107741138Y-50724949D01*
X107721732Y-50715770D01*
X107703319Y-50704734D01*
X107686076Y-50691946D01*
X107670170Y-50677530D01*
X107655754Y-50661624D01*
X107642966Y-50644381D01*
X107631930Y-50625968D01*
X107622751Y-50606562D01*
X107615519Y-50586350D01*
X107610303Y-50565526D01*
X107607153Y-50544291D01*
X107606100Y-50522850D01*
X107606100Y-50010350D01*
X107607153Y-49988909D01*
X107610303Y-49967674D01*
X107615519Y-49946850D01*
X107622751Y-49926638D01*
X107631930Y-49907232D01*
X107642966Y-49888819D01*
X107655754Y-49871576D01*
X107670170Y-49855670D01*
X107686076Y-49841254D01*
X107703319Y-49828466D01*
X107721732Y-49817430D01*
X107741138Y-49808251D01*
X107761350Y-49801019D01*
X107782174Y-49795803D01*
X107803409Y-49792653D01*
X107824850Y-49791600D01*
X108262350Y-49791600D01*
X108283791Y-49792653D01*
X108283791Y-49792653D01*
G37*
D11*
X108043600Y-50266600D03*
D12*
X137007600Y-57810400D03*
X137017600Y-67980400D03*
X137017600Y-62900400D03*
X129387600Y-57810400D03*
X129387600Y-67970400D03*
X129387600Y-62880400D03*
X137007600Y-50190400D03*
D13*
X129387600Y-50290000D03*
D12*
X112522000Y-57912000D03*
X112532000Y-68082000D03*
X112532000Y-63002000D03*
X104902000Y-57912000D03*
X104902000Y-68072000D03*
X104902000Y-62982000D03*
X112522000Y-50292000D03*
D13*
X104902000Y-50290000D03*
D14*
X117061600Y-60604400D03*
X119561600Y-60604400D03*
X122061600Y-60604400D03*
D10*
G36*
X125190994Y-59630603D02*
G01*
X125215253Y-59634202D01*
X125239042Y-59640161D01*
X125262133Y-59648423D01*
X125284302Y-59658908D01*
X125305337Y-59671516D01*
X125325035Y-59686125D01*
X125343206Y-59702594D01*
X125359675Y-59720765D01*
X125374284Y-59740463D01*
X125386892Y-59761498D01*
X125397377Y-59783667D01*
X125405639Y-59806758D01*
X125411598Y-59830547D01*
X125415197Y-59854806D01*
X125416400Y-59879300D01*
X125416400Y-61329500D01*
X125415197Y-61353994D01*
X125411598Y-61378253D01*
X125405639Y-61402042D01*
X125397377Y-61425133D01*
X125386892Y-61447302D01*
X125374284Y-61468337D01*
X125359675Y-61488035D01*
X125343206Y-61506206D01*
X125325035Y-61522675D01*
X125305337Y-61537284D01*
X125284302Y-61549892D01*
X125262133Y-61560377D01*
X125239042Y-61568639D01*
X125215253Y-61574598D01*
X125190994Y-61578197D01*
X125166500Y-61579400D01*
X123966300Y-61579400D01*
X123941806Y-61578197D01*
X123917547Y-61574598D01*
X123893758Y-61568639D01*
X123870667Y-61560377D01*
X123848498Y-61549892D01*
X123827463Y-61537284D01*
X123807765Y-61522675D01*
X123789594Y-61506206D01*
X123773125Y-61488035D01*
X123758516Y-61468337D01*
X123745908Y-61447302D01*
X123735423Y-61425133D01*
X123727161Y-61402042D01*
X123721202Y-61378253D01*
X123717603Y-61353994D01*
X123716400Y-61329500D01*
X123716400Y-59879300D01*
X123717603Y-59854806D01*
X123721202Y-59830547D01*
X123727161Y-59806758D01*
X123735423Y-59783667D01*
X123745908Y-59761498D01*
X123758516Y-59740463D01*
X123773125Y-59720765D01*
X123789594Y-59702594D01*
X123807765Y-59686125D01*
X123827463Y-59671516D01*
X123848498Y-59658908D01*
X123870667Y-59648423D01*
X123893758Y-59640161D01*
X123917547Y-59634202D01*
X123941806Y-59630603D01*
X123966300Y-59629400D01*
X125166500Y-59629400D01*
X125190994Y-59630603D01*
X125190994Y-59630603D01*
G37*
D15*
X124566400Y-60604400D03*
D16*
X141935200Y-55314200D03*
X141935200Y-57814200D03*
X141935200Y-60314200D03*
D10*
G36*
X142684704Y-61965404D02*
G01*
X142708973Y-61969004D01*
X142732771Y-61974965D01*
X142755871Y-61983230D01*
X142778049Y-61993720D01*
X142799093Y-62006333D01*
X142818798Y-62020947D01*
X142836977Y-62037423D01*
X142853453Y-62055602D01*
X142868067Y-62075307D01*
X142880680Y-62096351D01*
X142891170Y-62118529D01*
X142899435Y-62141629D01*
X142905396Y-62165427D01*
X142908996Y-62189696D01*
X142910200Y-62214200D01*
X142910200Y-63414200D01*
X142908996Y-63438704D01*
X142905396Y-63462973D01*
X142899435Y-63486771D01*
X142891170Y-63509871D01*
X142880680Y-63532049D01*
X142868067Y-63553093D01*
X142853453Y-63572798D01*
X142836977Y-63590977D01*
X142818798Y-63607453D01*
X142799093Y-63622067D01*
X142778049Y-63634680D01*
X142755871Y-63645170D01*
X142732771Y-63653435D01*
X142708973Y-63659396D01*
X142684704Y-63662996D01*
X142660200Y-63664200D01*
X141210200Y-63664200D01*
X141185696Y-63662996D01*
X141161427Y-63659396D01*
X141137629Y-63653435D01*
X141114529Y-63645170D01*
X141092351Y-63634680D01*
X141071307Y-63622067D01*
X141051602Y-63607453D01*
X141033423Y-63590977D01*
X141016947Y-63572798D01*
X141002333Y-63553093D01*
X140989720Y-63532049D01*
X140979230Y-63509871D01*
X140970965Y-63486771D01*
X140965004Y-63462973D01*
X140961404Y-63438704D01*
X140960200Y-63414200D01*
X140960200Y-62214200D01*
X140961404Y-62189696D01*
X140965004Y-62165427D01*
X140970965Y-62141629D01*
X140979230Y-62118529D01*
X140989720Y-62096351D01*
X141002333Y-62075307D01*
X141016947Y-62055602D01*
X141033423Y-62037423D01*
X141051602Y-62020947D01*
X141071307Y-62006333D01*
X141092351Y-61993720D01*
X141114529Y-61983230D01*
X141137629Y-61974965D01*
X141161427Y-61969004D01*
X141185696Y-61965404D01*
X141210200Y-61964200D01*
X142660200Y-61964200D01*
X142684704Y-61965404D01*
X142684704Y-61965404D01*
G37*
D15*
X141935200Y-62814200D03*
D14*
X116985400Y-53035200D03*
X119485400Y-53035200D03*
X121985400Y-53035200D03*
D10*
G36*
X125063994Y-52061403D02*
G01*
X125088253Y-52065002D01*
X125112042Y-52070961D01*
X125135133Y-52079223D01*
X125157302Y-52089708D01*
X125178337Y-52102316D01*
X125198035Y-52116925D01*
X125216206Y-52133394D01*
X125232675Y-52151565D01*
X125247284Y-52171263D01*
X125259892Y-52192298D01*
X125270377Y-52214467D01*
X125278639Y-52237558D01*
X125284598Y-52261347D01*
X125288197Y-52285606D01*
X125289400Y-52310100D01*
X125289400Y-53760300D01*
X125288197Y-53784794D01*
X125284598Y-53809053D01*
X125278639Y-53832842D01*
X125270377Y-53855933D01*
X125259892Y-53878102D01*
X125247284Y-53899137D01*
X125232675Y-53918835D01*
X125216206Y-53937006D01*
X125198035Y-53953475D01*
X125178337Y-53968084D01*
X125157302Y-53980692D01*
X125135133Y-53991177D01*
X125112042Y-53999439D01*
X125088253Y-54005398D01*
X125063994Y-54008997D01*
X125039500Y-54010200D01*
X123839300Y-54010200D01*
X123814806Y-54008997D01*
X123790547Y-54005398D01*
X123766758Y-53999439D01*
X123743667Y-53991177D01*
X123721498Y-53980692D01*
X123700463Y-53968084D01*
X123680765Y-53953475D01*
X123662594Y-53937006D01*
X123646125Y-53918835D01*
X123631516Y-53899137D01*
X123618908Y-53878102D01*
X123608423Y-53855933D01*
X123600161Y-53832842D01*
X123594202Y-53809053D01*
X123590603Y-53784794D01*
X123589400Y-53760300D01*
X123589400Y-52310100D01*
X123590603Y-52285606D01*
X123594202Y-52261347D01*
X123600161Y-52237558D01*
X123608423Y-52214467D01*
X123618908Y-52192298D01*
X123631516Y-52171263D01*
X123646125Y-52151565D01*
X123662594Y-52133394D01*
X123680765Y-52116925D01*
X123700463Y-52102316D01*
X123721498Y-52089708D01*
X123743667Y-52079223D01*
X123766758Y-52070961D01*
X123790547Y-52065002D01*
X123814806Y-52061403D01*
X123839300Y-52060200D01*
X125039500Y-52060200D01*
X125063994Y-52061403D01*
X125063994Y-52061403D01*
G37*
D15*
X124439400Y-53035200D03*
D16*
X91922600Y-59200400D03*
X91922600Y-61700400D03*
X91922600Y-64200400D03*
D10*
G36*
X92672104Y-65851604D02*
G01*
X92696373Y-65855204D01*
X92720171Y-65861165D01*
X92743271Y-65869430D01*
X92765449Y-65879920D01*
X92786493Y-65892533D01*
X92806198Y-65907147D01*
X92824377Y-65923623D01*
X92840853Y-65941802D01*
X92855467Y-65961507D01*
X92868080Y-65982551D01*
X92878570Y-66004729D01*
X92886835Y-66027829D01*
X92892796Y-66051627D01*
X92896396Y-66075896D01*
X92897600Y-66100400D01*
X92897600Y-67300400D01*
X92896396Y-67324904D01*
X92892796Y-67349173D01*
X92886835Y-67372971D01*
X92878570Y-67396071D01*
X92868080Y-67418249D01*
X92855467Y-67439293D01*
X92840853Y-67458998D01*
X92824377Y-67477177D01*
X92806198Y-67493653D01*
X92786493Y-67508267D01*
X92765449Y-67520880D01*
X92743271Y-67531370D01*
X92720171Y-67539635D01*
X92696373Y-67545596D01*
X92672104Y-67549196D01*
X92647600Y-67550400D01*
X91197600Y-67550400D01*
X91173096Y-67549196D01*
X91148827Y-67545596D01*
X91125029Y-67539635D01*
X91101929Y-67531370D01*
X91079751Y-67520880D01*
X91058707Y-67508267D01*
X91039002Y-67493653D01*
X91020823Y-67477177D01*
X91004347Y-67458998D01*
X90989733Y-67439293D01*
X90977120Y-67418249D01*
X90966630Y-67396071D01*
X90958365Y-67372971D01*
X90952404Y-67349173D01*
X90948804Y-67324904D01*
X90947600Y-67300400D01*
X90947600Y-66100400D01*
X90948804Y-66075896D01*
X90952404Y-66051627D01*
X90958365Y-66027829D01*
X90966630Y-66004729D01*
X90977120Y-65982551D01*
X90989733Y-65961507D01*
X91004347Y-65941802D01*
X91020823Y-65923623D01*
X91039002Y-65907147D01*
X91058707Y-65892533D01*
X91079751Y-65879920D01*
X91101929Y-65869430D01*
X91125029Y-65861165D01*
X91148827Y-65855204D01*
X91173096Y-65851604D01*
X91197600Y-65850400D01*
X92647600Y-65850400D01*
X92672104Y-65851604D01*
X92672104Y-65851604D01*
G37*
D15*
X91922600Y-66700400D03*
D17*
X108818680Y-52501800D03*
X99344480Y-56774080D03*
D18*
X109651800Y-50292000D02*
X109626400Y-50266600D01*
X112522000Y-50292000D02*
X109651800Y-50292000D01*
X109626400Y-51694080D02*
X109626400Y-50266600D01*
X108818680Y-52501800D02*
X109626400Y-51694080D01*
X134112000Y-50190400D02*
X134010400Y-50292000D01*
X137007600Y-50190400D02*
X134112000Y-50190400D01*
D19*
X116985400Y-53448600D02*
X116985400Y-53035200D01*
X112522000Y-57912000D02*
X116985400Y-53448600D01*
X111203810Y-51610190D02*
X105601999Y-57212001D01*
X118285410Y-52371719D02*
X117523881Y-51610190D01*
X117523881Y-51610190D02*
X111203810Y-51610190D01*
X118285410Y-52946450D02*
X118285410Y-52371719D01*
X118374160Y-53035200D02*
X118285410Y-52946450D01*
X105601999Y-57212001D02*
X104902000Y-57912000D01*
X119485400Y-53035200D02*
X118374160Y-53035200D01*
X121985400Y-53160200D02*
X121985400Y-53035200D01*
X125935601Y-57110401D02*
X121985400Y-53160200D01*
X128687601Y-57110401D02*
X125935601Y-57110401D01*
X129387600Y-57810400D02*
X128687601Y-57110401D01*
X132232400Y-53035200D02*
X124439400Y-53035200D01*
X137007600Y-57810400D02*
X132232400Y-53035200D01*
X130377549Y-67970400D02*
X129387600Y-67970400D01*
X134464034Y-67970400D02*
X130377549Y-67970400D01*
X141935200Y-60499234D02*
X134464034Y-67970400D01*
X141935200Y-60314200D02*
X141935200Y-60499234D01*
X137017600Y-67731800D02*
X137017600Y-67980400D01*
X141935200Y-62814200D02*
X137017600Y-67731800D01*
X114929600Y-60604400D02*
X117061600Y-60604400D01*
X112532000Y-63002000D02*
X114929600Y-60604400D01*
X105601999Y-62282001D02*
X104902000Y-62982000D01*
X108704610Y-59179390D02*
X105601999Y-62282001D01*
X117600081Y-59179390D02*
X108704610Y-59179390D01*
X119025091Y-60604400D02*
X117600081Y-59179390D01*
X119561600Y-60604400D02*
X119025091Y-60604400D01*
X122061600Y-60729400D02*
X122061600Y-60604400D01*
X124212600Y-62880400D02*
X122061600Y-60729400D01*
X129387600Y-62880400D02*
X124212600Y-62880400D01*
X125516400Y-60604400D02*
X124566400Y-60604400D01*
X133731651Y-60604400D02*
X125516400Y-60604400D01*
X136027651Y-62900400D02*
X133731651Y-60604400D01*
X137017600Y-62900400D02*
X136027651Y-62900400D01*
D18*
X108020200Y-50290000D02*
X108043600Y-50266600D01*
X104902000Y-50290000D02*
X108020200Y-50290000D01*
X129389600Y-50292000D02*
X129387600Y-50290000D01*
X132427600Y-50292000D02*
X129389600Y-50292000D01*
X104902000Y-51216560D02*
X104902000Y-50290000D01*
X99344480Y-56774080D02*
X104902000Y-51216560D01*
D20*
G36*
X93509014Y-48811161D02*
G01*
X93205341Y-49194301D01*
X92981870Y-49629128D01*
X92847113Y-50099080D01*
X92806204Y-50586255D01*
X92860700Y-51072099D01*
X93008526Y-51538104D01*
X93244051Y-51966522D01*
X93558303Y-52341034D01*
X93939314Y-52647375D01*
X94372570Y-52873876D01*
X94841570Y-53011910D01*
X95328448Y-53056219D01*
X95814660Y-53005116D01*
X96281687Y-52860547D01*
X96711738Y-52628019D01*
X97088435Y-52316389D01*
X97397428Y-51937526D01*
X97626948Y-51505861D01*
X97768253Y-51037837D01*
X97815960Y-50551280D01*
X97814983Y-50481336D01*
X97753709Y-49996301D01*
X97599391Y-49532405D01*
X97357908Y-49107317D01*
X97038457Y-48737229D01*
X96816733Y-48564000D01*
X145111001Y-48564000D01*
X145111000Y-69165000D01*
X137646244Y-69165000D01*
X137649959Y-69163461D01*
X137868613Y-69017362D01*
X138054562Y-68831413D01*
X138200661Y-68612759D01*
X138301296Y-68369805D01*
X138352600Y-68111886D01*
X138352600Y-67848914D01*
X138319329Y-67681650D01*
X141698707Y-64302272D01*
X142660200Y-64302272D01*
X142833454Y-64285208D01*
X143000050Y-64234672D01*
X143153586Y-64152605D01*
X143288162Y-64042162D01*
X143398605Y-63907586D01*
X143480672Y-63754050D01*
X143531208Y-63587454D01*
X143548272Y-63414200D01*
X143548272Y-62214200D01*
X143531208Y-62040946D01*
X143480672Y-61874350D01*
X143398605Y-61720814D01*
X143288162Y-61586238D01*
X143153586Y-61475795D01*
X143051863Y-61421423D01*
X143115334Y-61369334D01*
X143300906Y-61143214D01*
X143438799Y-60885234D01*
X143523713Y-60605311D01*
X143552385Y-60314200D01*
X143523713Y-60023089D01*
X143438799Y-59743166D01*
X143300906Y-59485186D01*
X143115334Y-59259066D01*
X142889214Y-59073494D01*
X142871826Y-59064200D01*
X142889214Y-59054906D01*
X143115334Y-58869334D01*
X143300906Y-58643214D01*
X143438799Y-58385234D01*
X143523713Y-58105311D01*
X143552385Y-57814200D01*
X143523713Y-57523089D01*
X143438799Y-57243166D01*
X143300906Y-56985186D01*
X143115334Y-56759066D01*
X142889214Y-56573494D01*
X142871826Y-56564200D01*
X142889214Y-56554906D01*
X143115334Y-56369334D01*
X143300906Y-56143214D01*
X143438799Y-55885234D01*
X143523713Y-55605311D01*
X143552385Y-55314200D01*
X143523713Y-55023089D01*
X143438799Y-54743166D01*
X143300906Y-54485186D01*
X143115334Y-54259066D01*
X142889214Y-54073494D01*
X142631234Y-53935601D01*
X142351311Y-53850687D01*
X142133150Y-53829200D01*
X141737250Y-53829200D01*
X141519089Y-53850687D01*
X141239166Y-53935601D01*
X140981186Y-54073494D01*
X140755066Y-54259066D01*
X140569494Y-54485186D01*
X140431601Y-54743166D01*
X140346687Y-55023089D01*
X140318015Y-55314200D01*
X140346687Y-55605311D01*
X140431601Y-55885234D01*
X140569494Y-56143214D01*
X140755066Y-56369334D01*
X140981186Y-56554906D01*
X140998574Y-56564200D01*
X140981186Y-56573494D01*
X140755066Y-56759066D01*
X140569494Y-56985186D01*
X140431601Y-57243166D01*
X140346687Y-57523089D01*
X140318015Y-57814200D01*
X140346687Y-58105311D01*
X140431601Y-58385234D01*
X140569494Y-58643214D01*
X140755066Y-58869334D01*
X140981186Y-59054906D01*
X140998574Y-59064200D01*
X140981186Y-59073494D01*
X140755066Y-59259066D01*
X140569494Y-59485186D01*
X140431601Y-59743166D01*
X140346687Y-60023089D01*
X140318015Y-60314200D01*
X140346687Y-60605311D01*
X140400418Y-60782437D01*
X138352600Y-62830255D01*
X138352600Y-62768914D01*
X138301296Y-62510995D01*
X138200661Y-62268041D01*
X138054562Y-62049387D01*
X137868613Y-61863438D01*
X137649959Y-61717339D01*
X137407005Y-61616704D01*
X137149086Y-61565400D01*
X136886114Y-61565400D01*
X136628195Y-61616704D01*
X136385241Y-61717339D01*
X136211954Y-61833125D01*
X134388185Y-60009356D01*
X134360468Y-59975583D01*
X134225710Y-59864989D01*
X134071964Y-59782811D01*
X133905141Y-59732205D01*
X133775128Y-59719400D01*
X133775120Y-59719400D01*
X133731651Y-59715119D01*
X133688182Y-59719400D01*
X126038723Y-59719400D01*
X126037410Y-59706065D01*
X125986879Y-59539488D01*
X125904822Y-59385969D01*
X125794391Y-59251409D01*
X125659831Y-59140978D01*
X125506312Y-59058921D01*
X125339735Y-59008390D01*
X125166500Y-58991328D01*
X123966300Y-58991328D01*
X123793065Y-59008390D01*
X123626488Y-59058921D01*
X123472969Y-59140978D01*
X123338409Y-59251409D01*
X123227978Y-59385969D01*
X123171705Y-59491249D01*
X123116734Y-59424266D01*
X122890614Y-59238694D01*
X122632634Y-59100801D01*
X122352711Y-59015887D01*
X122061600Y-58987215D01*
X121770490Y-59015887D01*
X121490567Y-59100801D01*
X121232587Y-59238694D01*
X121006466Y-59424266D01*
X120820894Y-59650386D01*
X120811600Y-59667774D01*
X120802306Y-59650386D01*
X120616734Y-59424266D01*
X120390614Y-59238694D01*
X120132634Y-59100801D01*
X119852711Y-59015887D01*
X119561600Y-58987215D01*
X119270490Y-59015887D01*
X118990567Y-59100801D01*
X118848830Y-59176561D01*
X118256615Y-58584346D01*
X118228898Y-58550573D01*
X118094140Y-58439979D01*
X117940394Y-58357801D01*
X117773571Y-58307195D01*
X117643558Y-58294390D01*
X117643550Y-58294390D01*
X117600081Y-58290109D01*
X117556612Y-58294390D01*
X113807091Y-58294390D01*
X113857000Y-58043486D01*
X113857000Y-57828578D01*
X117038415Y-54647163D01*
X117276510Y-54623713D01*
X117556433Y-54538799D01*
X117814413Y-54400906D01*
X118040534Y-54215334D01*
X118226106Y-53989214D01*
X118235400Y-53971826D01*
X118244694Y-53989213D01*
X118430266Y-54215334D01*
X118656386Y-54400906D01*
X118914366Y-54538799D01*
X119194289Y-54623713D01*
X119485400Y-54652385D01*
X119776510Y-54623713D01*
X120056433Y-54538799D01*
X120314413Y-54400906D01*
X120540534Y-54215334D01*
X120726106Y-53989214D01*
X120735400Y-53971826D01*
X120744694Y-53989213D01*
X120930266Y-54215334D01*
X121156386Y-54400906D01*
X121414366Y-54538799D01*
X121694289Y-54623713D01*
X121985400Y-54652385D01*
X122204434Y-54630812D01*
X125279071Y-57705450D01*
X125306784Y-57739218D01*
X125340552Y-57766931D01*
X125340554Y-57766933D01*
X125393519Y-57810400D01*
X125441542Y-57849812D01*
X125595288Y-57931990D01*
X125762111Y-57982596D01*
X125892124Y-57995401D01*
X125892132Y-57995401D01*
X125935601Y-57999682D01*
X125979070Y-57995401D01*
X128063245Y-57995401D01*
X128103904Y-58199805D01*
X128204539Y-58442759D01*
X128350638Y-58661413D01*
X128536587Y-58847362D01*
X128755241Y-58993461D01*
X128998195Y-59094096D01*
X129256114Y-59145400D01*
X129519086Y-59145400D01*
X129777005Y-59094096D01*
X130019959Y-58993461D01*
X130238613Y-58847362D01*
X130424562Y-58661413D01*
X130570661Y-58442759D01*
X130671296Y-58199805D01*
X130722600Y-57941886D01*
X130722600Y-57678914D01*
X130671296Y-57420995D01*
X130570661Y-57178041D01*
X130424562Y-56959387D01*
X130238613Y-56773438D01*
X130019959Y-56627339D01*
X129777005Y-56526704D01*
X129519086Y-56475400D01*
X129308883Y-56475400D01*
X129181660Y-56370990D01*
X129027914Y-56288812D01*
X128861091Y-56238206D01*
X128731078Y-56225401D01*
X128731070Y-56225401D01*
X128687601Y-56221120D01*
X128644132Y-56225401D01*
X126302180Y-56225401D01*
X124725051Y-54648272D01*
X125039500Y-54648272D01*
X125212735Y-54631210D01*
X125379312Y-54580679D01*
X125532831Y-54498622D01*
X125667391Y-54388191D01*
X125777822Y-54253631D01*
X125859879Y-54100112D01*
X125910410Y-53933535D01*
X125911723Y-53920200D01*
X131865822Y-53920200D01*
X135672600Y-57726979D01*
X135672600Y-57941886D01*
X135723904Y-58199805D01*
X135824539Y-58442759D01*
X135970638Y-58661413D01*
X136156587Y-58847362D01*
X136375241Y-58993461D01*
X136618195Y-59094096D01*
X136876114Y-59145400D01*
X137139086Y-59145400D01*
X137397005Y-59094096D01*
X137639959Y-58993461D01*
X137858613Y-58847362D01*
X138044562Y-58661413D01*
X138190661Y-58442759D01*
X138291296Y-58199805D01*
X138342600Y-57941886D01*
X138342600Y-57678914D01*
X138291296Y-57420995D01*
X138190661Y-57178041D01*
X138044562Y-56959387D01*
X137858613Y-56773438D01*
X137639959Y-56627339D01*
X137397005Y-56526704D01*
X137139086Y-56475400D01*
X136924179Y-56475400D01*
X132888932Y-52440154D01*
X132861217Y-52406383D01*
X132726459Y-52295789D01*
X132572713Y-52213611D01*
X132405890Y-52163005D01*
X132275877Y-52150200D01*
X132275869Y-52150200D01*
X132232400Y-52145919D01*
X132188931Y-52150200D01*
X125911723Y-52150200D01*
X125910410Y-52136865D01*
X125859879Y-51970288D01*
X125777822Y-51816769D01*
X125667391Y-51682209D01*
X125532831Y-51571778D01*
X125379312Y-51489721D01*
X125212735Y-51439190D01*
X125039500Y-51422128D01*
X123839300Y-51422128D01*
X123666065Y-51439190D01*
X123499488Y-51489721D01*
X123345969Y-51571778D01*
X123211409Y-51682209D01*
X123100978Y-51816769D01*
X123064742Y-51884563D01*
X123040534Y-51855066D01*
X122814414Y-51669494D01*
X122556434Y-51531601D01*
X122276511Y-51446687D01*
X121985400Y-51418015D01*
X121694290Y-51446687D01*
X121414367Y-51531601D01*
X121156387Y-51669494D01*
X120930266Y-51855066D01*
X120744694Y-52081186D01*
X120735400Y-52098574D01*
X120726106Y-52081186D01*
X120540534Y-51855066D01*
X120314414Y-51669494D01*
X120056434Y-51531601D01*
X119776511Y-51446687D01*
X119485400Y-51418015D01*
X119194290Y-51446687D01*
X118914367Y-51531601D01*
X118772630Y-51607361D01*
X118180415Y-51015146D01*
X118152698Y-50981373D01*
X118017940Y-50870779D01*
X117864194Y-50788601D01*
X117697371Y-50737995D01*
X117567358Y-50725190D01*
X117567350Y-50725190D01*
X117523881Y-50720909D01*
X117480412Y-50725190D01*
X113787560Y-50725190D01*
X113805696Y-50681405D01*
X113857000Y-50423486D01*
X113857000Y-50160514D01*
X113805696Y-49902595D01*
X113705061Y-49659641D01*
X113658529Y-49590000D01*
X128049528Y-49590000D01*
X128049528Y-50990000D01*
X128061788Y-51114482D01*
X128098098Y-51234180D01*
X128157063Y-51344494D01*
X128236415Y-51441185D01*
X128333106Y-51520537D01*
X128443420Y-51579502D01*
X128563118Y-51615812D01*
X128687600Y-51628072D01*
X130087600Y-51628072D01*
X130212082Y-51615812D01*
X130331780Y-51579502D01*
X130442094Y-51520537D01*
X130538785Y-51441185D01*
X130618137Y-51344494D01*
X130677102Y-51234180D01*
X130713412Y-51114482D01*
X130719566Y-51052000D01*
X131519182Y-51052000D01*
X131602985Y-51154115D01*
X131732825Y-51260671D01*
X131880958Y-51339850D01*
X132041692Y-51388608D01*
X132208850Y-51405072D01*
X132646350Y-51405072D01*
X132813508Y-51388608D01*
X132974242Y-51339850D01*
X133122375Y-51260671D01*
X133219000Y-51181374D01*
X133315625Y-51260671D01*
X133463758Y-51339850D01*
X133624492Y-51388608D01*
X133791650Y-51405072D01*
X134229150Y-51405072D01*
X134396308Y-51388608D01*
X134557042Y-51339850D01*
X134705175Y-51260671D01*
X134835015Y-51154115D01*
X134941571Y-51024275D01*
X134981058Y-50950400D01*
X135909825Y-50950400D01*
X135970638Y-51041413D01*
X136156587Y-51227362D01*
X136375241Y-51373461D01*
X136618195Y-51474096D01*
X136876114Y-51525400D01*
X137139086Y-51525400D01*
X137397005Y-51474096D01*
X137639959Y-51373461D01*
X137858613Y-51227362D01*
X138044562Y-51041413D01*
X138190661Y-50822759D01*
X138291296Y-50579805D01*
X138342600Y-50321886D01*
X138342600Y-50058914D01*
X138291296Y-49800995D01*
X138190661Y-49558041D01*
X138044562Y-49339387D01*
X137858613Y-49153438D01*
X137639959Y-49007339D01*
X137397005Y-48906704D01*
X137139086Y-48855400D01*
X136876114Y-48855400D01*
X136618195Y-48906704D01*
X136375241Y-49007339D01*
X136156587Y-49153438D01*
X135970638Y-49339387D01*
X135909825Y-49430400D01*
X134835438Y-49430400D01*
X134835015Y-49429885D01*
X134705175Y-49323329D01*
X134557042Y-49244150D01*
X134396308Y-49195392D01*
X134229150Y-49178928D01*
X133791650Y-49178928D01*
X133624492Y-49195392D01*
X133463758Y-49244150D01*
X133315625Y-49323329D01*
X133219000Y-49402626D01*
X133122375Y-49323329D01*
X132974242Y-49244150D01*
X132813508Y-49195392D01*
X132646350Y-49178928D01*
X132208850Y-49178928D01*
X132041692Y-49195392D01*
X131880958Y-49244150D01*
X131732825Y-49323329D01*
X131602985Y-49429885D01*
X131519182Y-49532000D01*
X130719960Y-49532000D01*
X130713412Y-49465518D01*
X130677102Y-49345820D01*
X130618137Y-49235506D01*
X130538785Y-49138815D01*
X130442094Y-49059463D01*
X130331780Y-49000498D01*
X130212082Y-48964188D01*
X130087600Y-48951928D01*
X128687600Y-48951928D01*
X128563118Y-48964188D01*
X128443420Y-49000498D01*
X128333106Y-49059463D01*
X128236415Y-49138815D01*
X128157063Y-49235506D01*
X128098098Y-49345820D01*
X128061788Y-49465518D01*
X128049528Y-49590000D01*
X113658529Y-49590000D01*
X113558962Y-49440987D01*
X113373013Y-49255038D01*
X113154359Y-49108939D01*
X112911405Y-49008304D01*
X112653486Y-48957000D01*
X112390514Y-48957000D01*
X112132595Y-49008304D01*
X111889641Y-49108939D01*
X111670987Y-49255038D01*
X111485038Y-49440987D01*
X111424225Y-49532000D01*
X110555663Y-49532000D01*
X110451015Y-49404485D01*
X110321175Y-49297929D01*
X110173042Y-49218750D01*
X110012308Y-49169992D01*
X109845150Y-49153528D01*
X109407650Y-49153528D01*
X109240492Y-49169992D01*
X109079758Y-49218750D01*
X108931625Y-49297929D01*
X108835000Y-49377226D01*
X108738375Y-49297929D01*
X108590242Y-49218750D01*
X108429508Y-49169992D01*
X108262350Y-49153528D01*
X107824850Y-49153528D01*
X107657692Y-49169992D01*
X107496958Y-49218750D01*
X107348825Y-49297929D01*
X107218985Y-49404485D01*
X107115978Y-49530000D01*
X106234163Y-49530000D01*
X106227812Y-49465518D01*
X106191502Y-49345820D01*
X106132537Y-49235506D01*
X106053185Y-49138815D01*
X105956494Y-49059463D01*
X105846180Y-49000498D01*
X105726482Y-48964188D01*
X105602000Y-48951928D01*
X104202000Y-48951928D01*
X104077518Y-48964188D01*
X103957820Y-49000498D01*
X103847506Y-49059463D01*
X103750815Y-49138815D01*
X103671463Y-49235506D01*
X103612498Y-49345820D01*
X103576188Y-49465518D01*
X103563928Y-49590000D01*
X103563928Y-50990000D01*
X103576188Y-51114482D01*
X103612498Y-51234180D01*
X103671463Y-51344494D01*
X103683994Y-51359764D01*
X99304679Y-55739080D01*
X99242541Y-55739080D01*
X99042582Y-55778854D01*
X98854224Y-55856875D01*
X98684706Y-55970143D01*
X98540543Y-56114306D01*
X98427275Y-56283824D01*
X98349254Y-56472182D01*
X98309480Y-56672141D01*
X98309480Y-56876019D01*
X98349254Y-57075978D01*
X98427275Y-57264336D01*
X98540543Y-57433854D01*
X98684706Y-57578017D01*
X98854224Y-57691285D01*
X99042582Y-57769306D01*
X99242541Y-57809080D01*
X99446419Y-57809080D01*
X99646378Y-57769306D01*
X99834736Y-57691285D01*
X100004254Y-57578017D01*
X100148417Y-57433854D01*
X100261685Y-57264336D01*
X100339706Y-57075978D01*
X100379480Y-56876019D01*
X100379480Y-56813881D01*
X105413004Y-51780358D01*
X105442001Y-51756561D01*
X105503020Y-51682209D01*
X105536974Y-51640837D01*
X105543797Y-51628072D01*
X105602000Y-51628072D01*
X105726482Y-51615812D01*
X105846180Y-51579502D01*
X105956494Y-51520537D01*
X106053185Y-51441185D01*
X106132537Y-51344494D01*
X106191502Y-51234180D01*
X106227812Y-51114482D01*
X106234163Y-51050000D01*
X107154386Y-51050000D01*
X107218985Y-51128715D01*
X107348825Y-51235271D01*
X107496958Y-51314450D01*
X107657692Y-51363208D01*
X107824850Y-51379672D01*
X108262350Y-51379672D01*
X108429508Y-51363208D01*
X108590242Y-51314450D01*
X108738375Y-51235271D01*
X108835000Y-51155974D01*
X108866400Y-51181743D01*
X108866400Y-51379278D01*
X108778878Y-51466800D01*
X108716741Y-51466800D01*
X108516782Y-51506574D01*
X108328424Y-51584595D01*
X108158906Y-51697863D01*
X108014743Y-51842026D01*
X107901475Y-52011544D01*
X107823454Y-52199902D01*
X107783680Y-52399861D01*
X107783680Y-52603739D01*
X107823454Y-52803698D01*
X107901475Y-52992056D01*
X108014743Y-53161574D01*
X108158906Y-53305737D01*
X108217520Y-53344901D01*
X105006958Y-56555464D01*
X105006952Y-56555469D01*
X104985421Y-56577000D01*
X104770514Y-56577000D01*
X104512595Y-56628304D01*
X104269641Y-56728939D01*
X104050987Y-56875038D01*
X103865038Y-57060987D01*
X103718939Y-57279641D01*
X103618304Y-57522595D01*
X103567000Y-57780514D01*
X103567000Y-58043486D01*
X103618304Y-58301405D01*
X103718939Y-58544359D01*
X103865038Y-58763013D01*
X104050987Y-58948962D01*
X104269641Y-59095061D01*
X104512595Y-59195696D01*
X104770514Y-59247000D01*
X105033486Y-59247000D01*
X105291405Y-59195696D01*
X105534359Y-59095061D01*
X105753013Y-58948962D01*
X105938962Y-58763013D01*
X106085061Y-58544359D01*
X106185696Y-58301405D01*
X106237000Y-58043486D01*
X106237000Y-57828579D01*
X106258531Y-57807048D01*
X106258536Y-57807042D01*
X111570389Y-52495190D01*
X115559471Y-52495190D01*
X115521887Y-52619089D01*
X115500400Y-52837250D01*
X115500400Y-53233149D01*
X115521887Y-53451310D01*
X115570583Y-53611838D01*
X112605422Y-56577000D01*
X112390514Y-56577000D01*
X112132595Y-56628304D01*
X111889641Y-56728939D01*
X111670987Y-56875038D01*
X111485038Y-57060987D01*
X111338939Y-57279641D01*
X111238304Y-57522595D01*
X111187000Y-57780514D01*
X111187000Y-58043486D01*
X111236909Y-58294390D01*
X108748079Y-58294390D01*
X108704610Y-58290109D01*
X108661141Y-58294390D01*
X108661133Y-58294390D01*
X108531120Y-58307195D01*
X108364296Y-58357801D01*
X108210551Y-58439979D01*
X108109563Y-58522858D01*
X108109561Y-58522860D01*
X108075793Y-58550573D01*
X108048080Y-58584341D01*
X105006957Y-61625465D01*
X105006952Y-61625469D01*
X104985421Y-61647000D01*
X104770514Y-61647000D01*
X104512595Y-61698304D01*
X104269641Y-61798939D01*
X104050987Y-61945038D01*
X103865038Y-62130987D01*
X103718939Y-62349641D01*
X103618304Y-62592595D01*
X103567000Y-62850514D01*
X103567000Y-63113486D01*
X103618304Y-63371405D01*
X103718939Y-63614359D01*
X103865038Y-63833013D01*
X104050987Y-64018962D01*
X104269641Y-64165061D01*
X104512595Y-64265696D01*
X104770514Y-64317000D01*
X105033486Y-64317000D01*
X105291405Y-64265696D01*
X105534359Y-64165061D01*
X105753013Y-64018962D01*
X105938962Y-63833013D01*
X106085061Y-63614359D01*
X106185696Y-63371405D01*
X106237000Y-63113486D01*
X106237000Y-62898579D01*
X106258531Y-62877048D01*
X106258535Y-62877043D01*
X109071189Y-60064390D01*
X114218031Y-60064390D01*
X112615422Y-61667000D01*
X112400514Y-61667000D01*
X112142595Y-61718304D01*
X111899641Y-61818939D01*
X111680987Y-61965038D01*
X111495038Y-62150987D01*
X111348939Y-62369641D01*
X111248304Y-62612595D01*
X111197000Y-62870514D01*
X111197000Y-63133486D01*
X111248304Y-63391405D01*
X111348939Y-63634359D01*
X111495038Y-63853013D01*
X111680987Y-64038962D01*
X111899641Y-64185061D01*
X112142595Y-64285696D01*
X112400514Y-64337000D01*
X112663486Y-64337000D01*
X112921405Y-64285696D01*
X113164359Y-64185061D01*
X113383013Y-64038962D01*
X113568962Y-63853013D01*
X113715061Y-63634359D01*
X113815696Y-63391405D01*
X113867000Y-63133486D01*
X113867000Y-62918578D01*
X115296179Y-61489400D01*
X115784006Y-61489400D01*
X115820894Y-61558413D01*
X116006466Y-61784534D01*
X116232586Y-61970106D01*
X116490566Y-62107999D01*
X116770489Y-62192913D01*
X117061600Y-62221585D01*
X117352710Y-62192913D01*
X117632633Y-62107999D01*
X117890613Y-61970106D01*
X118116734Y-61784534D01*
X118302306Y-61558414D01*
X118311600Y-61541026D01*
X118320894Y-61558413D01*
X118506466Y-61784534D01*
X118732586Y-61970106D01*
X118990566Y-62107999D01*
X119270489Y-62192913D01*
X119561600Y-62221585D01*
X119852710Y-62192913D01*
X120132633Y-62107999D01*
X120390613Y-61970106D01*
X120616734Y-61784534D01*
X120802306Y-61558414D01*
X120811600Y-61541026D01*
X120820894Y-61558413D01*
X121006466Y-61784534D01*
X121232586Y-61970106D01*
X121490566Y-62107999D01*
X121770489Y-62192913D01*
X122061600Y-62221585D01*
X122280634Y-62200012D01*
X123556070Y-63475449D01*
X123583783Y-63509217D01*
X123617551Y-63536930D01*
X123617553Y-63536932D01*
X123641923Y-63556932D01*
X123718541Y-63619811D01*
X123872287Y-63701989D01*
X124039110Y-63752595D01*
X124169123Y-63765400D01*
X124169133Y-63765400D01*
X124212599Y-63769681D01*
X124256065Y-63765400D01*
X128384625Y-63765400D01*
X128536587Y-63917362D01*
X128755241Y-64063461D01*
X128998195Y-64164096D01*
X129256114Y-64215400D01*
X129519086Y-64215400D01*
X129777005Y-64164096D01*
X130019959Y-64063461D01*
X130238613Y-63917362D01*
X130424562Y-63731413D01*
X130570661Y-63512759D01*
X130671296Y-63269805D01*
X130722600Y-63011886D01*
X130722600Y-62748914D01*
X130671296Y-62490995D01*
X130570661Y-62248041D01*
X130424562Y-62029387D01*
X130238613Y-61843438D01*
X130019959Y-61697339D01*
X129777005Y-61596704D01*
X129519086Y-61545400D01*
X129256114Y-61545400D01*
X128998195Y-61596704D01*
X128755241Y-61697339D01*
X128536587Y-61843438D01*
X128384625Y-61995400D01*
X125748077Y-61995400D01*
X125794391Y-61957391D01*
X125904822Y-61822831D01*
X125986879Y-61669312D01*
X126037410Y-61502735D01*
X126038723Y-61489400D01*
X133365073Y-61489400D01*
X135371121Y-63495449D01*
X135398834Y-63529217D01*
X135432602Y-63556930D01*
X135432604Y-63556932D01*
X135469795Y-63587454D01*
X135533592Y-63639811D01*
X135687338Y-63721989D01*
X135854161Y-63772595D01*
X135984174Y-63785400D01*
X135984184Y-63785400D01*
X136017951Y-63788726D01*
X136166587Y-63937362D01*
X136385241Y-64083461D01*
X136628195Y-64184096D01*
X136886114Y-64235400D01*
X136947456Y-64235400D01*
X134097456Y-67085400D01*
X130390575Y-67085400D01*
X130238613Y-66933438D01*
X130019959Y-66787339D01*
X129777005Y-66686704D01*
X129519086Y-66635400D01*
X129256114Y-66635400D01*
X128998195Y-66686704D01*
X128755241Y-66787339D01*
X128536587Y-66933438D01*
X128350638Y-67119387D01*
X128204539Y-67338041D01*
X128103904Y-67580995D01*
X128052600Y-67838914D01*
X128052600Y-68101886D01*
X128103904Y-68359805D01*
X128204539Y-68602759D01*
X128350638Y-68821413D01*
X128536587Y-69007362D01*
X128755241Y-69153461D01*
X128783099Y-69165000D01*
X125259557Y-69165000D01*
X125700300Y-69118676D01*
X126167327Y-68974107D01*
X126597378Y-68741579D01*
X126974075Y-68429949D01*
X127283068Y-68051086D01*
X127512588Y-67619421D01*
X127653893Y-67151397D01*
X127701600Y-66664840D01*
X127700623Y-66594896D01*
X127639349Y-66109861D01*
X127485031Y-65645965D01*
X127243548Y-65220877D01*
X126924097Y-64850789D01*
X126538846Y-64549799D01*
X126102470Y-64329369D01*
X125631589Y-64197897D01*
X125144139Y-64160389D01*
X124658688Y-64218276D01*
X124193726Y-64369351D01*
X123766963Y-64607861D01*
X123394654Y-64924721D01*
X123090981Y-65307861D01*
X122867510Y-65742688D01*
X122732753Y-66212640D01*
X122691844Y-66699815D01*
X122746340Y-67185659D01*
X122894166Y-67651664D01*
X123129691Y-68080082D01*
X123443943Y-68454594D01*
X123824954Y-68760935D01*
X124258210Y-68987436D01*
X124727210Y-69125470D01*
X125161575Y-69165000D01*
X113314112Y-69165000D01*
X113383013Y-69118962D01*
X113568962Y-68933013D01*
X113715061Y-68714359D01*
X113815696Y-68471405D01*
X113867000Y-68213486D01*
X113867000Y-67950514D01*
X113815696Y-67692595D01*
X113715061Y-67449641D01*
X113568962Y-67230987D01*
X113383013Y-67045038D01*
X113164359Y-66898939D01*
X112921405Y-66798304D01*
X112663486Y-66747000D01*
X112400514Y-66747000D01*
X112142595Y-66798304D01*
X111899641Y-66898939D01*
X111680987Y-67045038D01*
X111495038Y-67230987D01*
X111348939Y-67449641D01*
X111248304Y-67692595D01*
X111197000Y-67950514D01*
X111197000Y-68213486D01*
X111248304Y-68471405D01*
X111348939Y-68714359D01*
X111495038Y-68933013D01*
X111680987Y-69118962D01*
X111749888Y-69165000D01*
X105669146Y-69165000D01*
X105753013Y-69108962D01*
X105938962Y-68923013D01*
X106085061Y-68704359D01*
X106185696Y-68461405D01*
X106237000Y-68203486D01*
X106237000Y-67940514D01*
X106185696Y-67682595D01*
X106085061Y-67439641D01*
X105938962Y-67220987D01*
X105753013Y-67035038D01*
X105534359Y-66888939D01*
X105291405Y-66788304D01*
X105033486Y-66737000D01*
X104770514Y-66737000D01*
X104512595Y-66788304D01*
X104269641Y-66888939D01*
X104050987Y-67035038D01*
X103865038Y-67220987D01*
X103718939Y-67439641D01*
X103618304Y-67682595D01*
X103567000Y-67940514D01*
X103567000Y-68203486D01*
X103618304Y-68461405D01*
X103718939Y-68704359D01*
X103865038Y-68923013D01*
X104050987Y-69108962D01*
X104134854Y-69165000D01*
X89585000Y-69165000D01*
X89585000Y-61700400D01*
X90305415Y-61700400D01*
X90334087Y-61991511D01*
X90419001Y-62271434D01*
X90556894Y-62529414D01*
X90742466Y-62755534D01*
X90968586Y-62941106D01*
X90985974Y-62950400D01*
X90968586Y-62959694D01*
X90742466Y-63145266D01*
X90556894Y-63371386D01*
X90419001Y-63629366D01*
X90334087Y-63909289D01*
X90305415Y-64200400D01*
X90334087Y-64491511D01*
X90419001Y-64771434D01*
X90556894Y-65029414D01*
X90742466Y-65255534D01*
X90805937Y-65307623D01*
X90704214Y-65361995D01*
X90569638Y-65472438D01*
X90459195Y-65607014D01*
X90377128Y-65760550D01*
X90326592Y-65927146D01*
X90309528Y-66100400D01*
X90309528Y-67300400D01*
X90326592Y-67473654D01*
X90377128Y-67640250D01*
X90459195Y-67793786D01*
X90569638Y-67928362D01*
X90704214Y-68038805D01*
X90857750Y-68120872D01*
X91024346Y-68171408D01*
X91197600Y-68188472D01*
X92647600Y-68188472D01*
X92820854Y-68171408D01*
X92987450Y-68120872D01*
X93140986Y-68038805D01*
X93275562Y-67928362D01*
X93386005Y-67793786D01*
X93468072Y-67640250D01*
X93518608Y-67473654D01*
X93535672Y-67300400D01*
X93535672Y-66100400D01*
X93518608Y-65927146D01*
X93468072Y-65760550D01*
X93386005Y-65607014D01*
X93275562Y-65472438D01*
X93140986Y-65361995D01*
X93039263Y-65307623D01*
X93102734Y-65255534D01*
X93288306Y-65029414D01*
X93426199Y-64771434D01*
X93511113Y-64491511D01*
X93539785Y-64200400D01*
X93511113Y-63909289D01*
X93426199Y-63629366D01*
X93288306Y-63371386D01*
X93102734Y-63145266D01*
X92876614Y-62959694D01*
X92859226Y-62950400D01*
X92876614Y-62941106D01*
X93102734Y-62755534D01*
X93288306Y-62529414D01*
X93426199Y-62271434D01*
X93511113Y-61991511D01*
X93539785Y-61700400D01*
X93511113Y-61409289D01*
X93426199Y-61129366D01*
X93288306Y-60871386D01*
X93102734Y-60645266D01*
X92876614Y-60459694D01*
X92850878Y-60445938D01*
X93057029Y-60289449D01*
X93250096Y-60071593D01*
X93396952Y-59820258D01*
X93489076Y-59557290D01*
X93367755Y-59327400D01*
X92049600Y-59327400D01*
X92049600Y-59347400D01*
X91795600Y-59347400D01*
X91795600Y-59327400D01*
X90477445Y-59327400D01*
X90356124Y-59557290D01*
X90448248Y-59820258D01*
X90595104Y-60071593D01*
X90788171Y-60289449D01*
X90994322Y-60445938D01*
X90968586Y-60459694D01*
X90742466Y-60645266D01*
X90556894Y-60871386D01*
X90419001Y-61129366D01*
X90334087Y-61409289D01*
X90305415Y-61700400D01*
X89585000Y-61700400D01*
X89585000Y-58843510D01*
X90356124Y-58843510D01*
X90477445Y-59073400D01*
X91795600Y-59073400D01*
X91795600Y-57874235D01*
X92049600Y-57874235D01*
X92049600Y-59073400D01*
X93367755Y-59073400D01*
X93489076Y-58843510D01*
X93396952Y-58580542D01*
X93250096Y-58329207D01*
X93057029Y-58111351D01*
X92825170Y-57935347D01*
X92563430Y-57807958D01*
X92281867Y-57734080D01*
X92049600Y-57874235D01*
X91795600Y-57874235D01*
X91563333Y-57734080D01*
X91281770Y-57807958D01*
X91020030Y-57935347D01*
X90788171Y-58111351D01*
X90595104Y-58329207D01*
X90448248Y-58580542D01*
X90356124Y-58843510D01*
X89585000Y-58843510D01*
X89585000Y-48564000D01*
X93799427Y-48564000D01*
X93509014Y-48811161D01*
X93509014Y-48811161D01*
G37*
X93509014Y-48811161D02*
X93205341Y-49194301D01*
X92981870Y-49629128D01*
X92847113Y-50099080D01*
X92806204Y-50586255D01*
X92860700Y-51072099D01*
X93008526Y-51538104D01*
X93244051Y-51966522D01*
X93558303Y-52341034D01*
X93939314Y-52647375D01*
X94372570Y-52873876D01*
X94841570Y-53011910D01*
X95328448Y-53056219D01*
X95814660Y-53005116D01*
X96281687Y-52860547D01*
X96711738Y-52628019D01*
X97088435Y-52316389D01*
X97397428Y-51937526D01*
X97626948Y-51505861D01*
X97768253Y-51037837D01*
X97815960Y-50551280D01*
X97814983Y-50481336D01*
X97753709Y-49996301D01*
X97599391Y-49532405D01*
X97357908Y-49107317D01*
X97038457Y-48737229D01*
X96816733Y-48564000D01*
X145111001Y-48564000D01*
X145111000Y-69165000D01*
X137646244Y-69165000D01*
X137649959Y-69163461D01*
X137868613Y-69017362D01*
X138054562Y-68831413D01*
X138200661Y-68612759D01*
X138301296Y-68369805D01*
X138352600Y-68111886D01*
X138352600Y-67848914D01*
X138319329Y-67681650D01*
X141698707Y-64302272D01*
X142660200Y-64302272D01*
X142833454Y-64285208D01*
X143000050Y-64234672D01*
X143153586Y-64152605D01*
X143288162Y-64042162D01*
X143398605Y-63907586D01*
X143480672Y-63754050D01*
X143531208Y-63587454D01*
X143548272Y-63414200D01*
X143548272Y-62214200D01*
X143531208Y-62040946D01*
X143480672Y-61874350D01*
X143398605Y-61720814D01*
X143288162Y-61586238D01*
X143153586Y-61475795D01*
X143051863Y-61421423D01*
X143115334Y-61369334D01*
X143300906Y-61143214D01*
X143438799Y-60885234D01*
X143523713Y-60605311D01*
X143552385Y-60314200D01*
X143523713Y-60023089D01*
X143438799Y-59743166D01*
X143300906Y-59485186D01*
X143115334Y-59259066D01*
X142889214Y-59073494D01*
X142871826Y-59064200D01*
X142889214Y-59054906D01*
X143115334Y-58869334D01*
X143300906Y-58643214D01*
X143438799Y-58385234D01*
X143523713Y-58105311D01*
X143552385Y-57814200D01*
X143523713Y-57523089D01*
X143438799Y-57243166D01*
X143300906Y-56985186D01*
X143115334Y-56759066D01*
X142889214Y-56573494D01*
X142871826Y-56564200D01*
X142889214Y-56554906D01*
X143115334Y-56369334D01*
X143300906Y-56143214D01*
X143438799Y-55885234D01*
X143523713Y-55605311D01*
X143552385Y-55314200D01*
X143523713Y-55023089D01*
X143438799Y-54743166D01*
X143300906Y-54485186D01*
X143115334Y-54259066D01*
X142889214Y-54073494D01*
X142631234Y-53935601D01*
X142351311Y-53850687D01*
X142133150Y-53829200D01*
X141737250Y-53829200D01*
X141519089Y-53850687D01*
X141239166Y-53935601D01*
X140981186Y-54073494D01*
X140755066Y-54259066D01*
X140569494Y-54485186D01*
X140431601Y-54743166D01*
X140346687Y-55023089D01*
X140318015Y-55314200D01*
X140346687Y-55605311D01*
X140431601Y-55885234D01*
X140569494Y-56143214D01*
X140755066Y-56369334D01*
X140981186Y-56554906D01*
X140998574Y-56564200D01*
X140981186Y-56573494D01*
X140755066Y-56759066D01*
X140569494Y-56985186D01*
X140431601Y-57243166D01*
X140346687Y-57523089D01*
X140318015Y-57814200D01*
X140346687Y-58105311D01*
X140431601Y-58385234D01*
X140569494Y-58643214D01*
X140755066Y-58869334D01*
X140981186Y-59054906D01*
X140998574Y-59064200D01*
X140981186Y-59073494D01*
X140755066Y-59259066D01*
X140569494Y-59485186D01*
X140431601Y-59743166D01*
X140346687Y-60023089D01*
X140318015Y-60314200D01*
X140346687Y-60605311D01*
X140400418Y-60782437D01*
X138352600Y-62830255D01*
X138352600Y-62768914D01*
X138301296Y-62510995D01*
X138200661Y-62268041D01*
X138054562Y-62049387D01*
X137868613Y-61863438D01*
X137649959Y-61717339D01*
X137407005Y-61616704D01*
X137149086Y-61565400D01*
X136886114Y-61565400D01*
X136628195Y-61616704D01*
X136385241Y-61717339D01*
X136211954Y-61833125D01*
X134388185Y-60009356D01*
X134360468Y-59975583D01*
X134225710Y-59864989D01*
X134071964Y-59782811D01*
X133905141Y-59732205D01*
X133775128Y-59719400D01*
X133775120Y-59719400D01*
X133731651Y-59715119D01*
X133688182Y-59719400D01*
X126038723Y-59719400D01*
X126037410Y-59706065D01*
X125986879Y-59539488D01*
X125904822Y-59385969D01*
X125794391Y-59251409D01*
X125659831Y-59140978D01*
X125506312Y-59058921D01*
X125339735Y-59008390D01*
X125166500Y-58991328D01*
X123966300Y-58991328D01*
X123793065Y-59008390D01*
X123626488Y-59058921D01*
X123472969Y-59140978D01*
X123338409Y-59251409D01*
X123227978Y-59385969D01*
X123171705Y-59491249D01*
X123116734Y-59424266D01*
X122890614Y-59238694D01*
X122632634Y-59100801D01*
X122352711Y-59015887D01*
X122061600Y-58987215D01*
X121770490Y-59015887D01*
X121490567Y-59100801D01*
X121232587Y-59238694D01*
X121006466Y-59424266D01*
X120820894Y-59650386D01*
X120811600Y-59667774D01*
X120802306Y-59650386D01*
X120616734Y-59424266D01*
X120390614Y-59238694D01*
X120132634Y-59100801D01*
X119852711Y-59015887D01*
X119561600Y-58987215D01*
X119270490Y-59015887D01*
X118990567Y-59100801D01*
X118848830Y-59176561D01*
X118256615Y-58584346D01*
X118228898Y-58550573D01*
X118094140Y-58439979D01*
X117940394Y-58357801D01*
X117773571Y-58307195D01*
X117643558Y-58294390D01*
X117643550Y-58294390D01*
X117600081Y-58290109D01*
X117556612Y-58294390D01*
X113807091Y-58294390D01*
X113857000Y-58043486D01*
X113857000Y-57828578D01*
X117038415Y-54647163D01*
X117276510Y-54623713D01*
X117556433Y-54538799D01*
X117814413Y-54400906D01*
X118040534Y-54215334D01*
X118226106Y-53989214D01*
X118235400Y-53971826D01*
X118244694Y-53989213D01*
X118430266Y-54215334D01*
X118656386Y-54400906D01*
X118914366Y-54538799D01*
X119194289Y-54623713D01*
X119485400Y-54652385D01*
X119776510Y-54623713D01*
X120056433Y-54538799D01*
X120314413Y-54400906D01*
X120540534Y-54215334D01*
X120726106Y-53989214D01*
X120735400Y-53971826D01*
X120744694Y-53989213D01*
X120930266Y-54215334D01*
X121156386Y-54400906D01*
X121414366Y-54538799D01*
X121694289Y-54623713D01*
X121985400Y-54652385D01*
X122204434Y-54630812D01*
X125279071Y-57705450D01*
X125306784Y-57739218D01*
X125340552Y-57766931D01*
X125340554Y-57766933D01*
X125393519Y-57810400D01*
X125441542Y-57849812D01*
X125595288Y-57931990D01*
X125762111Y-57982596D01*
X125892124Y-57995401D01*
X125892132Y-57995401D01*
X125935601Y-57999682D01*
X125979070Y-57995401D01*
X128063245Y-57995401D01*
X128103904Y-58199805D01*
X128204539Y-58442759D01*
X128350638Y-58661413D01*
X128536587Y-58847362D01*
X128755241Y-58993461D01*
X128998195Y-59094096D01*
X129256114Y-59145400D01*
X129519086Y-59145400D01*
X129777005Y-59094096D01*
X130019959Y-58993461D01*
X130238613Y-58847362D01*
X130424562Y-58661413D01*
X130570661Y-58442759D01*
X130671296Y-58199805D01*
X130722600Y-57941886D01*
X130722600Y-57678914D01*
X130671296Y-57420995D01*
X130570661Y-57178041D01*
X130424562Y-56959387D01*
X130238613Y-56773438D01*
X130019959Y-56627339D01*
X129777005Y-56526704D01*
X129519086Y-56475400D01*
X129308883Y-56475400D01*
X129181660Y-56370990D01*
X129027914Y-56288812D01*
X128861091Y-56238206D01*
X128731078Y-56225401D01*
X128731070Y-56225401D01*
X128687601Y-56221120D01*
X128644132Y-56225401D01*
X126302180Y-56225401D01*
X124725051Y-54648272D01*
X125039500Y-54648272D01*
X125212735Y-54631210D01*
X125379312Y-54580679D01*
X125532831Y-54498622D01*
X125667391Y-54388191D01*
X125777822Y-54253631D01*
X125859879Y-54100112D01*
X125910410Y-53933535D01*
X125911723Y-53920200D01*
X131865822Y-53920200D01*
X135672600Y-57726979D01*
X135672600Y-57941886D01*
X135723904Y-58199805D01*
X135824539Y-58442759D01*
X135970638Y-58661413D01*
X136156587Y-58847362D01*
X136375241Y-58993461D01*
X136618195Y-59094096D01*
X136876114Y-59145400D01*
X137139086Y-59145400D01*
X137397005Y-59094096D01*
X137639959Y-58993461D01*
X137858613Y-58847362D01*
X138044562Y-58661413D01*
X138190661Y-58442759D01*
X138291296Y-58199805D01*
X138342600Y-57941886D01*
X138342600Y-57678914D01*
X138291296Y-57420995D01*
X138190661Y-57178041D01*
X138044562Y-56959387D01*
X137858613Y-56773438D01*
X137639959Y-56627339D01*
X137397005Y-56526704D01*
X137139086Y-56475400D01*
X136924179Y-56475400D01*
X132888932Y-52440154D01*
X132861217Y-52406383D01*
X132726459Y-52295789D01*
X132572713Y-52213611D01*
X132405890Y-52163005D01*
X132275877Y-52150200D01*
X132275869Y-52150200D01*
X132232400Y-52145919D01*
X132188931Y-52150200D01*
X125911723Y-52150200D01*
X125910410Y-52136865D01*
X125859879Y-51970288D01*
X125777822Y-51816769D01*
X125667391Y-51682209D01*
X125532831Y-51571778D01*
X125379312Y-51489721D01*
X125212735Y-51439190D01*
X125039500Y-51422128D01*
X123839300Y-51422128D01*
X123666065Y-51439190D01*
X123499488Y-51489721D01*
X123345969Y-51571778D01*
X123211409Y-51682209D01*
X123100978Y-51816769D01*
X123064742Y-51884563D01*
X123040534Y-51855066D01*
X122814414Y-51669494D01*
X122556434Y-51531601D01*
X122276511Y-51446687D01*
X121985400Y-51418015D01*
X121694290Y-51446687D01*
X121414367Y-51531601D01*
X121156387Y-51669494D01*
X120930266Y-51855066D01*
X120744694Y-52081186D01*
X120735400Y-52098574D01*
X120726106Y-52081186D01*
X120540534Y-51855066D01*
X120314414Y-51669494D01*
X120056434Y-51531601D01*
X119776511Y-51446687D01*
X119485400Y-51418015D01*
X119194290Y-51446687D01*
X118914367Y-51531601D01*
X118772630Y-51607361D01*
X118180415Y-51015146D01*
X118152698Y-50981373D01*
X118017940Y-50870779D01*
X117864194Y-50788601D01*
X117697371Y-50737995D01*
X117567358Y-50725190D01*
X117567350Y-50725190D01*
X117523881Y-50720909D01*
X117480412Y-50725190D01*
X113787560Y-50725190D01*
X113805696Y-50681405D01*
X113857000Y-50423486D01*
X113857000Y-50160514D01*
X113805696Y-49902595D01*
X113705061Y-49659641D01*
X113658529Y-49590000D01*
X128049528Y-49590000D01*
X128049528Y-50990000D01*
X128061788Y-51114482D01*
X128098098Y-51234180D01*
X128157063Y-51344494D01*
X128236415Y-51441185D01*
X128333106Y-51520537D01*
X128443420Y-51579502D01*
X128563118Y-51615812D01*
X128687600Y-51628072D01*
X130087600Y-51628072D01*
X130212082Y-51615812D01*
X130331780Y-51579502D01*
X130442094Y-51520537D01*
X130538785Y-51441185D01*
X130618137Y-51344494D01*
X130677102Y-51234180D01*
X130713412Y-51114482D01*
X130719566Y-51052000D01*
X131519182Y-51052000D01*
X131602985Y-51154115D01*
X131732825Y-51260671D01*
X131880958Y-51339850D01*
X132041692Y-51388608D01*
X132208850Y-51405072D01*
X132646350Y-51405072D01*
X132813508Y-51388608D01*
X132974242Y-51339850D01*
X133122375Y-51260671D01*
X133219000Y-51181374D01*
X133315625Y-51260671D01*
X133463758Y-51339850D01*
X133624492Y-51388608D01*
X133791650Y-51405072D01*
X134229150Y-51405072D01*
X134396308Y-51388608D01*
X134557042Y-51339850D01*
X134705175Y-51260671D01*
X134835015Y-51154115D01*
X134941571Y-51024275D01*
X134981058Y-50950400D01*
X135909825Y-50950400D01*
X135970638Y-51041413D01*
X136156587Y-51227362D01*
X136375241Y-51373461D01*
X136618195Y-51474096D01*
X136876114Y-51525400D01*
X137139086Y-51525400D01*
X137397005Y-51474096D01*
X137639959Y-51373461D01*
X137858613Y-51227362D01*
X138044562Y-51041413D01*
X138190661Y-50822759D01*
X138291296Y-50579805D01*
X138342600Y-50321886D01*
X138342600Y-50058914D01*
X138291296Y-49800995D01*
X138190661Y-49558041D01*
X138044562Y-49339387D01*
X137858613Y-49153438D01*
X137639959Y-49007339D01*
X137397005Y-48906704D01*
X137139086Y-48855400D01*
X136876114Y-48855400D01*
X136618195Y-48906704D01*
X136375241Y-49007339D01*
X136156587Y-49153438D01*
X135970638Y-49339387D01*
X135909825Y-49430400D01*
X134835438Y-49430400D01*
X134835015Y-49429885D01*
X134705175Y-49323329D01*
X134557042Y-49244150D01*
X134396308Y-49195392D01*
X134229150Y-49178928D01*
X133791650Y-49178928D01*
X133624492Y-49195392D01*
X133463758Y-49244150D01*
X133315625Y-49323329D01*
X133219000Y-49402626D01*
X133122375Y-49323329D01*
X132974242Y-49244150D01*
X132813508Y-49195392D01*
X132646350Y-49178928D01*
X132208850Y-49178928D01*
X132041692Y-49195392D01*
X131880958Y-49244150D01*
X131732825Y-49323329D01*
X131602985Y-49429885D01*
X131519182Y-49532000D01*
X130719960Y-49532000D01*
X130713412Y-49465518D01*
X130677102Y-49345820D01*
X130618137Y-49235506D01*
X130538785Y-49138815D01*
X130442094Y-49059463D01*
X130331780Y-49000498D01*
X130212082Y-48964188D01*
X130087600Y-48951928D01*
X128687600Y-48951928D01*
X128563118Y-48964188D01*
X128443420Y-49000498D01*
X128333106Y-49059463D01*
X128236415Y-49138815D01*
X128157063Y-49235506D01*
X128098098Y-49345820D01*
X128061788Y-49465518D01*
X128049528Y-49590000D01*
X113658529Y-49590000D01*
X113558962Y-49440987D01*
X113373013Y-49255038D01*
X113154359Y-49108939D01*
X112911405Y-49008304D01*
X112653486Y-48957000D01*
X112390514Y-48957000D01*
X112132595Y-49008304D01*
X111889641Y-49108939D01*
X111670987Y-49255038D01*
X111485038Y-49440987D01*
X111424225Y-49532000D01*
X110555663Y-49532000D01*
X110451015Y-49404485D01*
X110321175Y-49297929D01*
X110173042Y-49218750D01*
X110012308Y-49169992D01*
X109845150Y-49153528D01*
X109407650Y-49153528D01*
X109240492Y-49169992D01*
X109079758Y-49218750D01*
X108931625Y-49297929D01*
X108835000Y-49377226D01*
X108738375Y-49297929D01*
X108590242Y-49218750D01*
X108429508Y-49169992D01*
X108262350Y-49153528D01*
X107824850Y-49153528D01*
X107657692Y-49169992D01*
X107496958Y-49218750D01*
X107348825Y-49297929D01*
X107218985Y-49404485D01*
X107115978Y-49530000D01*
X106234163Y-49530000D01*
X106227812Y-49465518D01*
X106191502Y-49345820D01*
X106132537Y-49235506D01*
X106053185Y-49138815D01*
X105956494Y-49059463D01*
X105846180Y-49000498D01*
X105726482Y-48964188D01*
X105602000Y-48951928D01*
X104202000Y-48951928D01*
X104077518Y-48964188D01*
X103957820Y-49000498D01*
X103847506Y-49059463D01*
X103750815Y-49138815D01*
X103671463Y-49235506D01*
X103612498Y-49345820D01*
X103576188Y-49465518D01*
X103563928Y-49590000D01*
X103563928Y-50990000D01*
X103576188Y-51114482D01*
X103612498Y-51234180D01*
X103671463Y-51344494D01*
X103683994Y-51359764D01*
X99304679Y-55739080D01*
X99242541Y-55739080D01*
X99042582Y-55778854D01*
X98854224Y-55856875D01*
X98684706Y-55970143D01*
X98540543Y-56114306D01*
X98427275Y-56283824D01*
X98349254Y-56472182D01*
X98309480Y-56672141D01*
X98309480Y-56876019D01*
X98349254Y-57075978D01*
X98427275Y-57264336D01*
X98540543Y-57433854D01*
X98684706Y-57578017D01*
X98854224Y-57691285D01*
X99042582Y-57769306D01*
X99242541Y-57809080D01*
X99446419Y-57809080D01*
X99646378Y-57769306D01*
X99834736Y-57691285D01*
X100004254Y-57578017D01*
X100148417Y-57433854D01*
X100261685Y-57264336D01*
X100339706Y-57075978D01*
X100379480Y-56876019D01*
X100379480Y-56813881D01*
X105413004Y-51780358D01*
X105442001Y-51756561D01*
X105503020Y-51682209D01*
X105536974Y-51640837D01*
X105543797Y-51628072D01*
X105602000Y-51628072D01*
X105726482Y-51615812D01*
X105846180Y-51579502D01*
X105956494Y-51520537D01*
X106053185Y-51441185D01*
X106132537Y-51344494D01*
X106191502Y-51234180D01*
X106227812Y-51114482D01*
X106234163Y-51050000D01*
X107154386Y-51050000D01*
X107218985Y-51128715D01*
X107348825Y-51235271D01*
X107496958Y-51314450D01*
X107657692Y-51363208D01*
X107824850Y-51379672D01*
X108262350Y-51379672D01*
X108429508Y-51363208D01*
X108590242Y-51314450D01*
X108738375Y-51235271D01*
X108835000Y-51155974D01*
X108866400Y-51181743D01*
X108866400Y-51379278D01*
X108778878Y-51466800D01*
X108716741Y-51466800D01*
X108516782Y-51506574D01*
X108328424Y-51584595D01*
X108158906Y-51697863D01*
X108014743Y-51842026D01*
X107901475Y-52011544D01*
X107823454Y-52199902D01*
X107783680Y-52399861D01*
X107783680Y-52603739D01*
X107823454Y-52803698D01*
X107901475Y-52992056D01*
X108014743Y-53161574D01*
X108158906Y-53305737D01*
X108217520Y-53344901D01*
X105006958Y-56555464D01*
X105006952Y-56555469D01*
X104985421Y-56577000D01*
X104770514Y-56577000D01*
X104512595Y-56628304D01*
X104269641Y-56728939D01*
X104050987Y-56875038D01*
X103865038Y-57060987D01*
X103718939Y-57279641D01*
X103618304Y-57522595D01*
X103567000Y-57780514D01*
X103567000Y-58043486D01*
X103618304Y-58301405D01*
X103718939Y-58544359D01*
X103865038Y-58763013D01*
X104050987Y-58948962D01*
X104269641Y-59095061D01*
X104512595Y-59195696D01*
X104770514Y-59247000D01*
X105033486Y-59247000D01*
X105291405Y-59195696D01*
X105534359Y-59095061D01*
X105753013Y-58948962D01*
X105938962Y-58763013D01*
X106085061Y-58544359D01*
X106185696Y-58301405D01*
X106237000Y-58043486D01*
X106237000Y-57828579D01*
X106258531Y-57807048D01*
X106258536Y-57807042D01*
X111570389Y-52495190D01*
X115559471Y-52495190D01*
X115521887Y-52619089D01*
X115500400Y-52837250D01*
X115500400Y-53233149D01*
X115521887Y-53451310D01*
X115570583Y-53611838D01*
X112605422Y-56577000D01*
X112390514Y-56577000D01*
X112132595Y-56628304D01*
X111889641Y-56728939D01*
X111670987Y-56875038D01*
X111485038Y-57060987D01*
X111338939Y-57279641D01*
X111238304Y-57522595D01*
X111187000Y-57780514D01*
X111187000Y-58043486D01*
X111236909Y-58294390D01*
X108748079Y-58294390D01*
X108704610Y-58290109D01*
X108661141Y-58294390D01*
X108661133Y-58294390D01*
X108531120Y-58307195D01*
X108364296Y-58357801D01*
X108210551Y-58439979D01*
X108109563Y-58522858D01*
X108109561Y-58522860D01*
X108075793Y-58550573D01*
X108048080Y-58584341D01*
X105006957Y-61625465D01*
X105006952Y-61625469D01*
X104985421Y-61647000D01*
X104770514Y-61647000D01*
X104512595Y-61698304D01*
X104269641Y-61798939D01*
X104050987Y-61945038D01*
X103865038Y-62130987D01*
X103718939Y-62349641D01*
X103618304Y-62592595D01*
X103567000Y-62850514D01*
X103567000Y-63113486D01*
X103618304Y-63371405D01*
X103718939Y-63614359D01*
X103865038Y-63833013D01*
X104050987Y-64018962D01*
X104269641Y-64165061D01*
X104512595Y-64265696D01*
X104770514Y-64317000D01*
X105033486Y-64317000D01*
X105291405Y-64265696D01*
X105534359Y-64165061D01*
X105753013Y-64018962D01*
X105938962Y-63833013D01*
X106085061Y-63614359D01*
X106185696Y-63371405D01*
X106237000Y-63113486D01*
X106237000Y-62898579D01*
X106258531Y-62877048D01*
X106258535Y-62877043D01*
X109071189Y-60064390D01*
X114218031Y-60064390D01*
X112615422Y-61667000D01*
X112400514Y-61667000D01*
X112142595Y-61718304D01*
X111899641Y-61818939D01*
X111680987Y-61965038D01*
X111495038Y-62150987D01*
X111348939Y-62369641D01*
X111248304Y-62612595D01*
X111197000Y-62870514D01*
X111197000Y-63133486D01*
X111248304Y-63391405D01*
X111348939Y-63634359D01*
X111495038Y-63853013D01*
X111680987Y-64038962D01*
X111899641Y-64185061D01*
X112142595Y-64285696D01*
X112400514Y-64337000D01*
X112663486Y-64337000D01*
X112921405Y-64285696D01*
X113164359Y-64185061D01*
X113383013Y-64038962D01*
X113568962Y-63853013D01*
X113715061Y-63634359D01*
X113815696Y-63391405D01*
X113867000Y-63133486D01*
X113867000Y-62918578D01*
X115296179Y-61489400D01*
X115784006Y-61489400D01*
X115820894Y-61558413D01*
X116006466Y-61784534D01*
X116232586Y-61970106D01*
X116490566Y-62107999D01*
X116770489Y-62192913D01*
X117061600Y-62221585D01*
X117352710Y-62192913D01*
X117632633Y-62107999D01*
X117890613Y-61970106D01*
X118116734Y-61784534D01*
X118302306Y-61558414D01*
X118311600Y-61541026D01*
X118320894Y-61558413D01*
X118506466Y-61784534D01*
X118732586Y-61970106D01*
X118990566Y-62107999D01*
X119270489Y-62192913D01*
X119561600Y-62221585D01*
X119852710Y-62192913D01*
X120132633Y-62107999D01*
X120390613Y-61970106D01*
X120616734Y-61784534D01*
X120802306Y-61558414D01*
X120811600Y-61541026D01*
X120820894Y-61558413D01*
X121006466Y-61784534D01*
X121232586Y-61970106D01*
X121490566Y-62107999D01*
X121770489Y-62192913D01*
X122061600Y-62221585D01*
X122280634Y-62200012D01*
X123556070Y-63475449D01*
X123583783Y-63509217D01*
X123617551Y-63536930D01*
X123617553Y-63536932D01*
X123641923Y-63556932D01*
X123718541Y-63619811D01*
X123872287Y-63701989D01*
X124039110Y-63752595D01*
X124169123Y-63765400D01*
X124169133Y-63765400D01*
X124212599Y-63769681D01*
X124256065Y-63765400D01*
X128384625Y-63765400D01*
X128536587Y-63917362D01*
X128755241Y-64063461D01*
X128998195Y-64164096D01*
X129256114Y-64215400D01*
X129519086Y-64215400D01*
X129777005Y-64164096D01*
X130019959Y-64063461D01*
X130238613Y-63917362D01*
X130424562Y-63731413D01*
X130570661Y-63512759D01*
X130671296Y-63269805D01*
X130722600Y-63011886D01*
X130722600Y-62748914D01*
X130671296Y-62490995D01*
X130570661Y-62248041D01*
X130424562Y-62029387D01*
X130238613Y-61843438D01*
X130019959Y-61697339D01*
X129777005Y-61596704D01*
X129519086Y-61545400D01*
X129256114Y-61545400D01*
X128998195Y-61596704D01*
X128755241Y-61697339D01*
X128536587Y-61843438D01*
X128384625Y-61995400D01*
X125748077Y-61995400D01*
X125794391Y-61957391D01*
X125904822Y-61822831D01*
X125986879Y-61669312D01*
X126037410Y-61502735D01*
X126038723Y-61489400D01*
X133365073Y-61489400D01*
X135371121Y-63495449D01*
X135398834Y-63529217D01*
X135432602Y-63556930D01*
X135432604Y-63556932D01*
X135469795Y-63587454D01*
X135533592Y-63639811D01*
X135687338Y-63721989D01*
X135854161Y-63772595D01*
X135984174Y-63785400D01*
X135984184Y-63785400D01*
X136017951Y-63788726D01*
X136166587Y-63937362D01*
X136385241Y-64083461D01*
X136628195Y-64184096D01*
X136886114Y-64235400D01*
X136947456Y-64235400D01*
X134097456Y-67085400D01*
X130390575Y-67085400D01*
X130238613Y-66933438D01*
X130019959Y-66787339D01*
X129777005Y-66686704D01*
X129519086Y-66635400D01*
X129256114Y-66635400D01*
X128998195Y-66686704D01*
X128755241Y-66787339D01*
X128536587Y-66933438D01*
X128350638Y-67119387D01*
X128204539Y-67338041D01*
X128103904Y-67580995D01*
X128052600Y-67838914D01*
X128052600Y-68101886D01*
X128103904Y-68359805D01*
X128204539Y-68602759D01*
X128350638Y-68821413D01*
X128536587Y-69007362D01*
X128755241Y-69153461D01*
X128783099Y-69165000D01*
X125259557Y-69165000D01*
X125700300Y-69118676D01*
X126167327Y-68974107D01*
X126597378Y-68741579D01*
X126974075Y-68429949D01*
X127283068Y-68051086D01*
X127512588Y-67619421D01*
X127653893Y-67151397D01*
X127701600Y-66664840D01*
X127700623Y-66594896D01*
X127639349Y-66109861D01*
X127485031Y-65645965D01*
X127243548Y-65220877D01*
X126924097Y-64850789D01*
X126538846Y-64549799D01*
X126102470Y-64329369D01*
X125631589Y-64197897D01*
X125144139Y-64160389D01*
X124658688Y-64218276D01*
X124193726Y-64369351D01*
X123766963Y-64607861D01*
X123394654Y-64924721D01*
X123090981Y-65307861D01*
X122867510Y-65742688D01*
X122732753Y-66212640D01*
X122691844Y-66699815D01*
X122746340Y-67185659D01*
X122894166Y-67651664D01*
X123129691Y-68080082D01*
X123443943Y-68454594D01*
X123824954Y-68760935D01*
X124258210Y-68987436D01*
X124727210Y-69125470D01*
X125161575Y-69165000D01*
X113314112Y-69165000D01*
X113383013Y-69118962D01*
X113568962Y-68933013D01*
X113715061Y-68714359D01*
X113815696Y-68471405D01*
X113867000Y-68213486D01*
X113867000Y-67950514D01*
X113815696Y-67692595D01*
X113715061Y-67449641D01*
X113568962Y-67230987D01*
X113383013Y-67045038D01*
X113164359Y-66898939D01*
X112921405Y-66798304D01*
X112663486Y-66747000D01*
X112400514Y-66747000D01*
X112142595Y-66798304D01*
X111899641Y-66898939D01*
X111680987Y-67045038D01*
X111495038Y-67230987D01*
X111348939Y-67449641D01*
X111248304Y-67692595D01*
X111197000Y-67950514D01*
X111197000Y-68213486D01*
X111248304Y-68471405D01*
X111348939Y-68714359D01*
X111495038Y-68933013D01*
X111680987Y-69118962D01*
X111749888Y-69165000D01*
X105669146Y-69165000D01*
X105753013Y-69108962D01*
X105938962Y-68923013D01*
X106085061Y-68704359D01*
X106185696Y-68461405D01*
X106237000Y-68203486D01*
X106237000Y-67940514D01*
X106185696Y-67682595D01*
X106085061Y-67439641D01*
X105938962Y-67220987D01*
X105753013Y-67035038D01*
X105534359Y-66888939D01*
X105291405Y-66788304D01*
X105033486Y-66737000D01*
X104770514Y-66737000D01*
X104512595Y-66788304D01*
X104269641Y-66888939D01*
X104050987Y-67035038D01*
X103865038Y-67220987D01*
X103718939Y-67439641D01*
X103618304Y-67682595D01*
X103567000Y-67940514D01*
X103567000Y-68203486D01*
X103618304Y-68461405D01*
X103718939Y-68704359D01*
X103865038Y-68923013D01*
X104050987Y-69108962D01*
X104134854Y-69165000D01*
X89585000Y-69165000D01*
X89585000Y-61700400D01*
X90305415Y-61700400D01*
X90334087Y-61991511D01*
X90419001Y-62271434D01*
X90556894Y-62529414D01*
X90742466Y-62755534D01*
X90968586Y-62941106D01*
X90985974Y-62950400D01*
X90968586Y-62959694D01*
X90742466Y-63145266D01*
X90556894Y-63371386D01*
X90419001Y-63629366D01*
X90334087Y-63909289D01*
X90305415Y-64200400D01*
X90334087Y-64491511D01*
X90419001Y-64771434D01*
X90556894Y-65029414D01*
X90742466Y-65255534D01*
X90805937Y-65307623D01*
X90704214Y-65361995D01*
X90569638Y-65472438D01*
X90459195Y-65607014D01*
X90377128Y-65760550D01*
X90326592Y-65927146D01*
X90309528Y-66100400D01*
X90309528Y-67300400D01*
X90326592Y-67473654D01*
X90377128Y-67640250D01*
X90459195Y-67793786D01*
X90569638Y-67928362D01*
X90704214Y-68038805D01*
X90857750Y-68120872D01*
X91024346Y-68171408D01*
X91197600Y-68188472D01*
X92647600Y-68188472D01*
X92820854Y-68171408D01*
X92987450Y-68120872D01*
X93140986Y-68038805D01*
X93275562Y-67928362D01*
X93386005Y-67793786D01*
X93468072Y-67640250D01*
X93518608Y-67473654D01*
X93535672Y-67300400D01*
X93535672Y-66100400D01*
X93518608Y-65927146D01*
X93468072Y-65760550D01*
X93386005Y-65607014D01*
X93275562Y-65472438D01*
X93140986Y-65361995D01*
X93039263Y-65307623D01*
X93102734Y-65255534D01*
X93288306Y-65029414D01*
X93426199Y-64771434D01*
X93511113Y-64491511D01*
X93539785Y-64200400D01*
X93511113Y-63909289D01*
X93426199Y-63629366D01*
X93288306Y-63371386D01*
X93102734Y-63145266D01*
X92876614Y-62959694D01*
X92859226Y-62950400D01*
X92876614Y-62941106D01*
X93102734Y-62755534D01*
X93288306Y-62529414D01*
X93426199Y-62271434D01*
X93511113Y-61991511D01*
X93539785Y-61700400D01*
X93511113Y-61409289D01*
X93426199Y-61129366D01*
X93288306Y-60871386D01*
X93102734Y-60645266D01*
X92876614Y-60459694D01*
X92850878Y-60445938D01*
X93057029Y-60289449D01*
X93250096Y-60071593D01*
X93396952Y-59820258D01*
X93489076Y-59557290D01*
X93367755Y-59327400D01*
X92049600Y-59327400D01*
X92049600Y-59347400D01*
X91795600Y-59347400D01*
X91795600Y-59327400D01*
X90477445Y-59327400D01*
X90356124Y-59557290D01*
X90448248Y-59820258D01*
X90595104Y-60071593D01*
X90788171Y-60289449D01*
X90994322Y-60445938D01*
X90968586Y-60459694D01*
X90742466Y-60645266D01*
X90556894Y-60871386D01*
X90419001Y-61129366D01*
X90334087Y-61409289D01*
X90305415Y-61700400D01*
X89585000Y-61700400D01*
X89585000Y-58843510D01*
X90356124Y-58843510D01*
X90477445Y-59073400D01*
X91795600Y-59073400D01*
X91795600Y-57874235D01*
X92049600Y-57874235D01*
X92049600Y-59073400D01*
X93367755Y-59073400D01*
X93489076Y-58843510D01*
X93396952Y-58580542D01*
X93250096Y-58329207D01*
X93057029Y-58111351D01*
X92825170Y-57935347D01*
X92563430Y-57807958D01*
X92281867Y-57734080D01*
X92049600Y-57874235D01*
X91795600Y-57874235D01*
X91563333Y-57734080D01*
X91281770Y-57807958D01*
X91020030Y-57935347D01*
X90788171Y-58111351D01*
X90595104Y-58329207D01*
X90448248Y-58580542D01*
X90356124Y-58843510D01*
X89585000Y-58843510D01*
X89585000Y-48564000D01*
X93799427Y-48564000D01*
X93509014Y-48811161D01*
M02*
